<svg width="3371" height="572" viewBox="0 0 3371 572" fill="none" xmlns="http://www.w3.org/2000/svg">
<path d="M3370.53 557.559H3299.27L3320.14 570.635L3319.54 572L3296.52 557.559H3068.73L3086.68 570.635L3086.02 572L3066.28 557.559H2838.25L2853.22 570.707L2852.5 571.928L2836.04 557.559H2607.71L2619.82 570.779L2618.92 571.856L2605.8 557.559H2377.23L2386.36 570.85L2385.4 571.784L2375.56 557.559H2146.76L2152.96 570.922L2151.82 571.713L2145.27 557.559H1916.28L1919.56 571.138L1918.31 571.497L1914.97 557.559H1685.92L1686.1 571.282L1684.79 571.353L1684.61 557.559H1455.56L1452.58 571.497L1451.33 571.138L1454.25 557.559H1225.26L1219.06 571.641L1217.93 570.922L1223.83 557.559H994.962L985.48 571.784L984.467 570.85L993.352 557.559H764.722L751.961 571.856L751.066 570.779L762.814 557.559H534.483L518.382 571.928L517.666 570.707L532.336 557.559H304.243L284.863 572L284.207 570.635L301.798 557.559H74.0034L51.3432 572L50.7469 570.635L71.32 557.559H0V555.978H73.7053L124.87 523.36H56.0542V521.851H127.315L178.479 489.233H112.168V487.652H180.924L232.088 455.034H168.222V453.525H234.533L285.697 420.907H224.336V419.326H288.142L339.307 386.708H280.39V385.199H341.752L392.916 352.509H336.504V351H395.361L446.525 318.382H392.618V316.873H448.97L500.134 284.183H448.672V282.674H502.579L553.744 250.056H504.786V248.476H556.189L607.353 215.857H560.84V214.348H609.798L660.962 181.73H616.954V180.15H663.407L714.572 147.531H673.008V146.023H717.016L768.181 113.404H729.122V111.824H770.626L821.79 79.2053H785.176V77.6966H824.056H824.235H826.918H868.542C872.06 77.6966 875.817 77.5529 879.812 77.3373C887.803 77.0499 896.092 76.7625 903.069 77.5529C928.949 74.1042 952.027 63.0399 974.389 48.455L981.008 44.0724C994.664 34.7324 1008.08 24.1709 1021.8 13.4658C1026.03 10.1609 1030.38 6.7841 1034.68 3.40732C1038.31 0.749003 1042.19 -1.33453 1045.53 1.0364C1045.73 1.18009 1045.91 1.29983 1046.07 1.39563L1047.26 2.04227C1053.88 5.70643 1061.15 10.1609 1069.92 15.7649C1074.87 18.9262 1079.82 22.1592 1084.65 25.3205C1087.87 27.428 1091.09 29.5355 1094.31 31.643C1142.07 62.3214 1193.66 45.9404 1227.23 27.907L1230.27 26.2545C1234.8 23.7399 1238.98 21.1534 1242.73 18.7825C1254.66 10.8794 1270.82 11.023 1286.09 19.2135L1287.28 19.8602C1292.41 22.6622 1297.54 25.6079 1302.54 28.4099C1327.41 42.6355 1353.11 57.364 1381.26 62.1777L1384.24 62.6088C1394.02 63.9739 1404.16 65.4108 1413.16 65.6982C1428.25 66.273 1443.75 66.2011 1459.32 65.5545L1462.12 65.4108C1465.62 65.2671 1469.14 65.0995 1472.67 64.9079C1483.29 64.1894 1493.01 63.3272 1502.37 62.1777C1512.81 60.9563 1522.88 59.5194 1532.55 54.8494C1533.46 54.4662 1534.37 54.107 1535.29 53.7717L1537.2 52.9814C1568.03 40.7675 1595.64 33.511 1621.46 30.8527C1640.54 28.841 1655.09 28.7691 1667.19 30.6371C1667.83 30.7329 1668.45 30.8287 1669.04 30.9245L1670.36 31.2119C1682.7 33.511 1695.22 37.9655 1707.33 42.2044C1733.86 51.5444 1761.23 61.2437 1788.43 49.4609C1798.03 45.4375 1807.03 38.6121 1815.74 31.5711L1817.05 30.4934C1818.12 29.6313 1819.2 28.7691 1820.27 27.907C1836.13 14.8309 1852.53 1.39561 1872.27 3.26362C1880.8 4.19762 1888.67 8.07735 1896.12 12.8911L1898.39 14.3998C1902.2 16.9863 1905.84 19.7883 1909.54 22.5185C1915.86 27.2604 1922.42 32.2178 1929.16 35.8101C1942.4 44.3598 1956.29 53.125 1968.87 58.5854C1983.24 64.9079 1996.42 67.7818 2009.18 67.4225C2017.83 66.1293 2024.93 64.4049 2030.95 62.3214C2033.81 61.3156 2036.69 60.2858 2039.6 59.232C2044.07 57.5795 2048.66 55.9271 2053.25 54.3465L2054.5 53.9154C2060.41 51.9755 2066.37 50.1075 2072.45 48.6706C2089.09 44.7909 2105.31 46.3715 2120.7 53.3406C2129.82 57.0048 2138.29 60.0942 2146.52 62.8962C2150.75 63.9739 2155.28 65.0516 2159.82 66.1293L2161.9 66.5604C2164.23 67.1351 2166.55 67.6381 2168.76 68.141C2173.05 69.1468 2177.17 70.009 2180.33 70.7993C2199.71 73.3139 2219.81 75.1101 2241.69 76.4033C2252.07 76.9781 2264.71 76.1878 2276.81 75.3256C2296.19 75.1101 2314.62 71.6614 2332.87 66.4885L2334.78 65.9137C2346.64 62.4651 2358.39 58.3698 2370.26 53.9154L2379.98 50.2512C2382.44 49.2933 2384.93 48.3353 2387.43 47.3773C2399.95 42.6355 2412.89 37.6781 2425.95 33.2955C2430.6 31.2119 2436.45 31.4274 2442.29 34.0858C2446.71 35.9538 2451.12 37.8457 2455.53 39.7616C2473.66 47.5211 2492.09 55.496 2510.81 62.1059L2516.06 63.9739C2534.96 70.3682 2554.16 75.3974 2573.6 77.6247L2573.48 79.1335C2555.65 77.1218 2538 72.7392 2520.71 67.0633C2537.41 78.4869 2554.4 89.8386 2571.46 100.831L2588.93 111.752C2592.98 111.8 2596.78 111.824 2600.32 111.824H2630.55V113.404H2600.32C2597.54 113.404 2594.57 113.38 2591.43 113.332L2643.49 146.023H2687.5V147.531H2645.94L2697.94 180.15H2744.39V181.73H2700.38L2752.38 214.348H2801.34V215.857H2754.82L2806.82 248.476H2858.23V250.056H2809.27L2861.27 282.674H2915.18V284.183H2863.71L2915.71 316.873H2972.06V318.382H2918.16L2970.16 351H3029.01V352.509H2972.6L3024.6 385.199H3085.9V386.708H3027.05L3079.04 419.326H3142.85V420.907H3081.49L3133.49 453.525H3199.74V455.034H3135.93L3187.93 487.652H3256.69V489.233H3190.38L3242.38 521.851H3313.58V523.36H3244.82L3296.82 555.978H3370.53V557.559Z" fill="url(#paint0_linear_147_5954)"/>
<g opacity="0.5">
<path fill-rule="evenodd" clip-rule="evenodd" d="M3370.53 557.559H3299.27L3320.14 570.635L3319.54 572L3296.52 557.559H3068.73L3086.68 570.635L3086.02 572L3066.28 557.559H2838.25L2853.22 570.707L2852.5 571.928L2836.04 557.559H2607.71L2619.82 570.779L2618.92 571.856L2605.8 557.559H2377.23L2386.36 570.85L2385.4 571.784L2375.56 557.559H2146.76L2152.96 570.922L2151.82 571.713L2145.27 557.559H1916.28L1919.56 571.138L1918.31 571.497L1914.97 557.559H1685.92L1686.1 571.282L1684.79 571.353L1684.61 557.559H1455.56L1452.58 571.497L1451.33 571.138L1454.25 557.559H1225.26L1219.06 571.641L1217.93 570.922L1223.83 557.559H994.962L985.48 571.784L984.467 570.85L993.352 557.559H764.722L751.961 571.856L751.066 570.779L762.814 557.559H534.483L518.382 571.928L517.666 570.707L532.336 557.559H304.243L284.863 572L284.207 570.635L301.798 557.559H74.0034L51.3432 572L50.7469 570.635L71.32 557.559H0V555.978H73.7053L124.87 523.36H56.0542V521.851H127.315L178.479 489.233H112.168V487.652H180.924L232.088 455.034H168.222V453.525H234.533L285.697 420.907H224.336V419.326H288.142L339.307 386.708H280.39V385.199H341.752L392.916 352.509H336.504V351H395.361L446.525 318.382H392.618V316.873H448.97L500.134 284.183H448.672V282.674H502.579L553.744 250.056H504.786V248.476H556.189L607.353 215.857H560.84V214.348H609.798L660.962 181.73H616.954V180.15H663.407L714.572 147.531H673.008V146.023H717.016L768.181 113.404H729.122V111.824H770.626L821.79 79.2053H785.176V77.6966H868.542C872.06 77.6966 875.817 77.5529 879.812 77.3373C887.803 77.0499 896.092 76.7625 903.069 77.5529C928.949 74.1042 952.027 63.0399 974.389 48.455L981.008 44.0724C994.664 34.7324 1008.08 24.1709 1021.8 13.4658C1026.03 10.1609 1030.38 6.7841 1034.68 3.40732C1038.31 0.749003 1042.19 -1.33453 1045.53 1.0364C1045.73 1.18009 1045.91 1.29983 1046.07 1.39563L1047.26 2.04227C1053.88 5.70643 1061.15 10.1609 1069.92 15.7649C1074.87 18.9262 1079.82 22.1592 1084.65 25.3205C1087.87 27.428 1091.09 29.5355 1094.31 31.643C1142.07 62.3214 1193.66 45.9404 1227.23 27.907L1230.27 26.2545C1234.8 23.7399 1238.98 21.1534 1242.73 18.7825C1254.66 10.8794 1270.82 11.023 1286.09 19.2135L1287.28 19.8602C1292.41 22.6622 1297.54 25.6079 1302.54 28.4099C1327.41 42.6355 1353.11 57.364 1381.26 62.1777L1384.24 62.6088C1394.02 63.9739 1404.16 65.4108 1413.16 65.6982C1428.25 66.273 1443.75 66.2011 1459.32 65.5545L1462.12 65.4108C1465.62 65.2671 1469.14 65.0995 1472.67 64.9079C1483.29 64.1894 1493.01 63.3272 1502.37 62.1777C1512.81 60.9563 1522.88 59.5194 1532.55 54.8494C1533.46 54.4662 1534.37 54.107 1535.29 53.7717L1537.2 52.9814C1568.03 40.7675 1595.64 33.511 1621.46 30.8527C1640.54 28.841 1655.09 28.7691 1667.19 30.6371C1667.83 30.7329 1668.45 30.8287 1669.04 30.9245L1670.36 31.2119C1682.7 33.511 1695.22 37.9655 1707.33 42.2044C1733.86 51.5444 1761.23 61.2437 1788.43 49.4609C1798.03 45.4375 1807.03 38.6121 1815.74 31.5711L1817.05 30.4934C1818.12 29.6313 1819.2 28.7691 1820.27 27.907C1836.13 14.8309 1852.53 1.39561 1872.27 3.26362C1880.8 4.19762 1888.67 8.07735 1896.12 12.8911L1898.39 14.3998C1902.2 16.9863 1905.84 19.7883 1909.54 22.5185C1915.86 27.2604 1922.42 32.2178 1929.16 35.8101C1942.4 44.3598 1956.29 53.125 1968.87 58.5854C1983.24 64.9079 1996.42 67.7818 2009.18 67.4225C2017.83 66.1293 2024.93 64.4049 2030.95 62.3214C2033.81 61.3156 2036.69 60.2858 2039.6 59.232C2044.07 57.5795 2048.66 55.9271 2053.25 54.3465L2054.5 53.9154C2060.41 51.9755 2066.37 50.1075 2072.45 48.6706C2089.09 44.7909 2105.31 46.3715 2120.7 53.3406C2129.82 57.0048 2138.29 60.0942 2146.52 62.8962C2150.75 63.9739 2155.28 65.0516 2159.82 66.1293L2161.9 66.5604C2164.23 67.1351 2166.55 67.6381 2168.76 68.141C2173.05 69.1468 2177.17 70.009 2180.33 70.7993C2199.71 73.3139 2219.81 75.1101 2241.69 76.4033C2252.07 76.9781 2264.71 76.1878 2276.81 75.3256C2296.19 75.1101 2314.62 71.6614 2332.87 66.4885L2334.78 65.9137C2346.64 62.4651 2358.39 58.3698 2370.26 53.9154L2379.98 50.2512C2382.44 49.2933 2384.93 48.3353 2387.43 47.3773C2399.95 42.6355 2412.89 37.6781 2425.95 33.2955C2430.6 31.2119 2436.45 31.4274 2442.29 34.0858C2446.71 35.9538 2451.12 37.8457 2455.53 39.7616C2473.66 47.5211 2492.09 55.496 2510.81 62.1059L2516.06 63.9739C2534.96 70.3682 2554.16 75.3974 2573.6 77.6247L2573.48 79.1335C2555.65 77.1218 2538 72.7392 2520.71 67.0633C2537.41 78.4869 2554.4 89.8386 2571.46 100.831L2588.93 111.752C2592.98 111.8 2596.78 111.824 2600.32 111.824H2630.55V113.404H2600.32C2597.54 113.404 2594.57 113.38 2591.43 113.332L2643.49 146.023H2687.5V147.531H2645.94L2697.94 180.15H2744.39V181.73H2700.38L2752.38 214.348H2801.34V215.857H2754.82L2806.82 248.476H2858.23V250.056H2809.27L2861.27 282.674H2915.18V284.183H2863.71L2915.71 316.873H2972.06V318.382H2918.16L2970.16 351H3029.01V352.509H2972.6L3024.6 385.199H3085.9V386.708H3027.05L3079.04 419.326H3142.85V420.907H3081.49L3133.49 453.525H3199.74V455.034H3135.93L3187.93 487.652H3256.69V489.233H3190.38L3242.38 521.851H3313.58V523.36H3244.82L3296.82 555.978H3370.53V557.559ZM3187.63 489.233H2975.28L3019.89 521.851H3239.63L3187.63 489.233ZM1526.88 104.854C1522.94 103.322 1519.09 101.765 1515.31 100.184C1508.16 97.3106 1500.28 100.687 1492.17 104.783C1464.15 118.721 1435.29 125.834 1407.79 125.906C1399.8 139.772 1392.95 155.147 1387.4 171.6C1411.85 174.689 1435.4 165.924 1460.03 156.728C1472.61 152.058 1485.61 147.244 1498.79 144.083C1508.39 141.855 1517.7 141.999 1526.82 143.652C1526.82 139.437 1526.82 135.246 1526.82 131.078C1526.82 122.457 1526.82 113.62 1526.88 104.854ZM1330.39 318.454L1316.02 351.072H1498.38L1505.35 318.454H1330.39ZM1505.65 316.873L1510.96 292.158C1511.48 289.62 1511.99 286.985 1512.51 284.255H1345.36L1331.05 316.873H1505.65ZM1315.31 352.581L1300.99 385.199H1491.04L1498.02 352.581H1315.31ZM1492.35 385.199H1682.46L1682.1 352.581H1499.33L1492.35 385.199ZM1682.52 282.746H1849.49L1841.68 250.056H1682.1L1682.52 282.746ZM1850.8 282.746H2017.71L2002.57 250.128H1843.05L1850.8 282.746ZM2019.14 282.746H2185.87L2163.33 250.128H2004L2019.14 282.746ZM2162.32 248.547L2139.78 215.929H1988.13L2003.28 248.547H2162.32ZM1986.7 215.929H1834.94L1842.69 248.547H2001.85L1986.7 215.929ZM1833.63 215.929H1681.69L1682.1 248.619H1841.38L1833.63 215.929ZM1681.69 318.382H1506.66L1499.69 351H1682.1L1681.69 318.382ZM1681.69 316.873L1681.27 284.255H1513.82C1513.28 287.129 1512.75 289.859 1512.15 292.517L1506.96 316.873H1681.69ZM1517.82 253.505C1518.01 252.355 1518.19 251.206 1518.35 250.056H1360.03C1358.18 254.798 1356.27 259.468 1354.3 263.994L1346.08 282.746H1512.81C1514.54 273.55 1516.21 263.42 1517.82 253.505ZM1366.89 228.287C1368.74 223.329 1370.47 218.587 1372.19 213.989C1330.75 211.044 1284.71 211.618 1229.32 215.714C1227.01 215.714 1224.68 215.738 1222.34 215.785C1220.31 218.899 1218.3 221.964 1216.32 224.982L1200.63 248.547H1359.25C1361.88 241.794 1364.38 234.968 1366.89 228.287ZM1199.62 250.056L1177.85 282.746H1344.64L1353.17 263.276C1355.02 259.037 1356.87 254.582 1358.66 250.056H1199.62ZM1176.84 284.255L1155.13 316.873H1329.62L1343.93 284.255H1176.84ZM1154.12 318.382L1132.41 351.072H1314.59L1328.96 318.382H1154.12ZM1131.34 352.581L1109.63 385.199H1299.56L1313.87 352.581H1131.34ZM1108.62 386.78L1086.91 419.398H1284.54L1298.85 386.78H1108.62ZM1285.97 419.398H1483.77L1490.74 386.78H1300.34L1285.97 419.398ZM1485.02 419.398H1682.88L1682.52 386.708H1492L1485.02 419.398ZM1682.94 316.945H1857.6L1849.85 284.327H1682.52L1682.94 316.945ZM1858.97 316.945H2033.57L2018.43 284.255H1851.16L1858.97 316.945ZM2035.07 316.945H2209.49L2187.01 284.327H2019.92L2035.07 316.945ZM2211.16 316.945H2385.4L2362.39 291.871L2362.33 291.727C2361.05 289.188 2359.76 286.722 2358.45 284.327H2188.68L2211.16 316.945ZM2357.56 282.818C2353.68 275.849 2349.56 269.455 2344.97 263.204C2339.67 256.235 2335.13 248.691 2331.14 240.86C2305.56 240.501 2281.23 242.584 2257.67 247.11H2257.61C2247.47 247.757 2239.13 248.691 2231.2 250.128H2231.14H2165.06L2187.54 282.818H2357.56ZM2330.36 239.279C2322.43 223.329 2316.59 205.942 2310.86 188.987C2309.13 183.886 2307.4 178.713 2305.62 173.54C2299.29 177.06 2293.03 180.796 2286.89 184.46C2262.44 198.973 2237.16 213.989 2209.01 216.001H2183.49H2141.51L2164.05 248.619H2231.14C2239.01 247.182 2247.41 246.176 2257.55 245.602C2280.93 241.075 2305.08 238.992 2330.36 239.279ZM2305.08 172.103C2301.62 162.26 2297.86 152.345 2293.51 142.933C2292.26 140.131 2290.83 137.688 2289.28 135.461C2255.7 155.003 2219.92 168.295 2179.85 176.198L2179.2 176.27C2169.24 177.635 2158.98 179.072 2146.93 181.802H2146.82H2117.95L2140.43 214.42H2209.01C2236.8 212.48 2261.97 197.536 2286.35 183.023C2292.5 179.359 2298.76 175.623 2305.08 172.103ZM2116.28 181.802H1972.39L1987.48 214.42H2138.77L2116.28 181.802ZM1970.96 181.802H1826.83L1834.64 214.492H1986.05L1970.96 181.802ZM1825.58 181.802H1681.33C1681.45 186.4 1681.53 190.974 1681.57 195.525L1681.8 214.42H1833.33L1825.58 181.802ZM1680.97 250.128H1519.78C1519.59 251.373 1519.39 252.619 1519.19 253.864C1517.58 263.635 1515.97 273.622 1514.24 282.746H1681.39L1680.97 250.128ZM1521.04 234.897C1522.88 224.407 1524.14 213.846 1525.03 203.212C1503.62 200.985 1482.57 205.08 1462.18 209.104C1449.42 211.618 1436.24 214.133 1423 215.211C1418.29 215.211 1413.4 215.426 1408.63 215.57C1403.92 215.785 1399.03 215.929 1394.32 215.929C1387.56 215.258 1380.68 214.66 1373.69 214.133C1371.84 218.875 1370.05 223.832 1368.14 228.933C1365.75 235.471 1363.31 242.081 1360.75 248.619H1518.71C1519.51 243.782 1520.28 239.207 1521.04 234.897ZM1374.46 208.457C1377.62 199.835 1380.3 190.855 1382.57 183.023C1383.56 179.623 1384.6 176.27 1385.67 172.965C1380.19 172.103 1374.58 170.738 1368.97 168.582C1364.5 167.289 1359.97 165.996 1355.44 164.631C1352.85 163.912 1350.27 163.17 1347.69 162.403C1341.36 160.535 1333.79 158.38 1325.98 156.368C1314.47 152.92 1302.96 152.92 1288.59 156.368C1276.31 159.242 1264.38 163.122 1252.81 166.858C1252.49 166.954 1252.16 167.05 1251.8 167.145C1251.64 167.529 1251.46 167.888 1251.26 168.223C1245.54 178.282 1239.81 187.981 1234.27 197.034C1230.69 202.925 1227.05 208.673 1223.47 214.277C1225.42 214.229 1227.39 214.205 1229.38 214.205C1285.01 210.109 1331.29 209.535 1372.91 212.552C1373.43 211.163 1373.94 209.798 1374.46 208.457ZM1249.95 167.792C1228.42 174.689 1207.85 181.012 1185.72 181.155C1168.19 181.802 1150.66 181.802 1135.16 181.802H1099.8L1070.69 214.42H1176.42C1190.79 214.42 1206.12 214.42 1221.8 214.277C1225.62 208.385 1229.44 202.278 1233.25 196.099C1238.68 187.191 1244.34 177.707 1249.95 167.792ZM1069.32 215.929L1040.28 248.619H1199.08L1215.42 224.048C1217.21 221.365 1219.02 218.635 1220.85 215.857C1205.46 215.929 1190.5 215.929 1176.42 215.929H1069.32ZM1038.85 250.128L1009.81 282.746H1176.3L1198.01 250.128H1038.85ZM1008.44 284.327L979.338 316.945H1153.58L1175.29 284.327H1008.44ZM977.967 318.454L948.926 351.072H1130.86L1152.57 318.454H977.967ZM947.554 352.653L918.454 385.271H1108.14L1129.85 352.653H947.554ZM917.082 386.78L887.982 419.398H1085.42L1107.13 386.78H917.082ZM886.61 420.979L857.51 453.597H1062.64L1084.35 420.979H886.61ZM1064.31 453.597H1269.63L1284 420.979H1086.02L1064.31 453.597ZM1271.06 453.597H1476.55L1483.53 420.979H1285.43L1271.06 453.597ZM1477.86 453.597H1683.41L1683.06 420.979H1484.84L1477.86 453.597ZM1683.47 351.072H1865.89L1858.08 318.454H1683.06L1683.47 351.072ZM1867.2 351.072H2049.56L2034.41 318.454H1859.45L1867.2 351.072ZM2050.99 351.072H2233.16L2210.62 318.382H2035.84L2050.99 351.072ZM2234.77 351.072H2416.71L2386.83 318.454H2212.29L2234.77 351.072ZM2235.85 352.653L2258.33 385.271H2448.02L2418.14 352.653H2235.85ZM2259.4 386.78L2281.88 419.398H2479.26L2449.39 386.78H2259.4ZM2282.96 420.979L2305.5 453.597H2510.57L2480.7 420.979H2282.96ZM2512.48 453.597H2717.32L2680.05 420.979H2482.6L2512.48 453.597ZM2678.32 419.398L2641.05 386.78H2451.3L2481.17 419.398H2678.32ZM2639.32 385.271L2602.05 352.581H2420.05L2449.93 385.271H2639.32ZM2600.26 351.072L2563.05 318.454H2388.74L2418.62 351.072H2600.26ZM2561.26 316.945L2523.99 284.255H2359.94C2361.09 286.363 2362.23 288.542 2363.34 290.793L2387.25 316.945H2561.26ZM2522.26 282.746L2484.99 250.128H2424.46H2424.4C2417.01 248.691 2409.2 247.757 2400.49 247.254C2376.88 243.374 2354.34 241.219 2332.69 240.86C2336.56 248.332 2340.92 255.516 2345.93 262.126C2350.82 268.736 2355.11 275.418 2359.17 282.746H2522.26ZM2483.2 248.547L2456.49 225.125C2452.97 221.605 2449.69 218.372 2446.53 215.282C2445.57 215.235 2444.6 215.187 2443.6 215.139C2420.77 213.127 2400.61 200.841 2381.17 188.987C2375.8 185.754 2370.26 182.377 2364.77 179.287C2354.75 173.612 2346.46 169.804 2338.53 167.074C2330.66 164.2 2322.43 164.703 2314.68 168.582C2312.06 169.971 2309.41 171.408 2306.75 172.893C2308.54 178.066 2310.33 183.239 2312.06 188.34C2317.84 205.583 2323.74 223.186 2331.85 239.279C2353.8 239.638 2376.64 241.794 2400.61 245.674C2409.26 246.176 2417.07 247.11 2424.52 248.547H2483.2ZM2444.86 213.63C2441.28 210.181 2438 206.876 2434.84 203.859C2432.39 201.416 2430.01 199.117 2427.62 196.818C2422.61 191.501 2418.02 185.179 2413.61 179.144C2412.3 177.324 2410.99 175.527 2409.67 173.755C2400.61 161.829 2393.63 146.238 2386.83 131.15C2386.4 130.192 2385.96 129.21 2385.52 128.205C2379.26 123.104 2372.88 118.002 2366.38 113.189C2345.27 97.0232 2322.79 111.393 2311.22 121.307L2311.16 121.379C2307.94 123.247 2303.41 126.193 2298.22 129.57C2295.72 131.222 2293.03 132.946 2290.41 134.671C2291.96 136.898 2293.33 139.413 2294.58 142.143C2298.94 151.627 2302.69 161.541 2306.21 171.456C2308.88 169.971 2311.52 168.558 2314.14 167.217C2322.19 163.122 2330.72 162.619 2338.83 165.637C2346.82 168.295 2355.23 172.175 2365.25 177.85C2370.79 181.012 2376.34 184.388 2381.71 187.622C2401.09 199.404 2421.06 211.618 2443.66 213.63C2444.06 213.63 2444.46 213.63 2444.86 213.63ZM2384.21 125.331C2376.34 107.944 2367.99 90.9163 2356.06 79.6364C2338.77 82.0792 2321.6 89.4075 2305.74 101.55L2305.62 101.621C2302.69 102.986 2299.65 104.567 2296.37 106.22C2289.75 109.525 2282.84 112.973 2277.17 115.416C2274.59 116.518 2272 117.619 2269.42 118.721C2277.17 121.738 2284.15 126.193 2289.52 133.521C2292.26 131.725 2295 129.929 2297.63 128.276C2302.81 124.828 2307.29 121.882 2310.57 120.014C2322.37 109.884 2345.33 95.2989 2367.1 111.895C2372.88 116.206 2378.61 120.733 2384.21 125.331ZM2267.39 119.583C2238.11 131.653 2206.75 142.143 2173.71 142.718C2166.55 143.436 2158.38 144.226 2143.77 147.603H2143.66H2094.34L2116.82 180.221H2146.7C2158.8 177.491 2169.06 176.126 2179.02 174.761L2179.61 174.617C2219.45 166.786 2255.05 153.566 2288.32 134.168C2282.78 126.84 2275.44 122.457 2267.39 119.583ZM2092.67 147.603H1956.53C1959.07 153.207 1961.62 158.739 1964.16 164.2L1971.62 180.221H2115.15L2092.67 147.603ZM1955.16 147.603H1924.98C1894.87 146.525 1863.86 147.028 1833.93 147.459C1829.75 147.507 1825.6 147.555 1821.46 147.603H1818.96C1820.15 152.992 1821.4 158.524 1822.72 164.343L1823.55 168.079L1826.41 180.221H1970.19L1963.09 164.99C1960.43 159.29 1957.78 153.495 1955.16 147.603ZM1817.65 147.603H1766.48C1756.94 147.028 1746.86 146.454 1737.02 146.454C1731.3 145.879 1725.63 145.304 1720.03 144.729C1710.01 143.723 1699.63 142.646 1689.5 141.784C1686.34 141.496 1683 141.137 1679.54 140.706C1680.31 154.429 1680.85 167.576 1681.21 180.221H1825.1L1822.3 168.51L1821.46 164.703C1820.15 158.811 1818.9 153.135 1817.65 147.603ZM1680.43 215.929H1661.77C1644.89 215.929 1626.76 215.929 1608.58 215.426C1592.06 215.067 1575.66 211.906 1559.8 208.888C1548.82 206.733 1537.55 204.577 1526.22 203.356C1525.33 213.989 1524.02 224.694 1522.17 235.184C1521.45 239.423 1520.68 243.877 1519.9 248.619H1680.85L1680.43 215.929ZM1526.82 145.16C1517.76 143.58 1508.51 143.292 1499.03 145.52C1485.91 148.681 1472.91 153.495 1460.39 158.165C1435.46 167.433 1411.67 176.342 1386.86 173.037C1385.75 176.485 1384.68 179.958 1383.64 183.455C1381.38 191.286 1378.69 200.338 1375.53 209.032C1375.06 210.181 1374.6 211.355 1374.16 212.552C1380.96 213.079 1387.66 213.678 1394.26 214.348C1398.91 214.348 1403.8 214.133 1408.51 213.989C1413.22 213.774 1418.11 213.63 1422.82 213.63C1435.94 212.552 1449.12 209.966 1461.88 207.523C1482.33 203.5 1503.5 199.404 1525.03 201.632C1526.52 182.808 1526.82 163.84 1526.82 145.16ZM1406.24 125.834C1391.75 125.762 1377.62 123.678 1364.26 119.583C1360.39 118.002 1356.09 116.565 1351.56 115.057C1347.63 113.763 1343.57 112.398 1339.22 110.818L1339.04 110.674L1337.25 109.381C1318.64 95.8737 1298.07 81.0015 1277.08 86.7492C1272.25 114.123 1265.39 141.065 1252.75 165.206C1264.2 161.469 1276.01 157.662 1288.23 154.788C1302.78 151.267 1314.47 151.267 1326.16 154.788C1333.97 156.871 1341.54 159.027 1347.86 160.823C1350.45 161.589 1353.03 162.356 1355.62 163.122C1360.15 164.415 1364.66 165.708 1369.15 167.002C1374.88 169.157 1380.48 170.594 1386.09 171.384C1391.52 155.003 1398.31 139.772 1406.24 125.834ZM1275.71 87.1803C1270.28 88.9046 1264.86 91.994 1259.37 96.9514C1237.6 117.499 1212.92 140.85 1181.97 143.795C1176.96 144.154 1171.89 144.657 1166.46 145.089C1162.53 145.448 1158.53 145.807 1154.54 146.166C1147.5 146.741 1138.5 147.459 1130.15 147.531L1101.05 180.221H1135.04C1150.48 180.221 1168.07 180.221 1185.61 179.503C1208.03 179.431 1228.9 172.821 1250.9 165.78C1263.84 141.712 1270.82 114.697 1275.71 87.1803ZM1128.24 147.531C1128.08 147.531 1127.92 147.531 1127.76 147.531C1107.79 146.454 1089.06 141.855 1069.2 137.042C1067.14 136.563 1065.05 136.06 1062.94 135.533C1038.49 129.785 1015 135.461 992.278 141.137C988.999 145.663 985.48 150.046 981.723 154.141C979.279 156.584 976.714 159.458 974.031 162.475C970.214 166.642 966.338 171.025 962.82 174.114L956.082 180.221H1099.2L1128.24 147.531ZM954.293 181.658L917.857 214.277H1068.67L1097.77 181.658H954.293ZM916.128 215.857L879.693 248.476H1038.25L1067.3 215.857H916.128ZM877.964 249.984L841.528 282.603H1007.78L1036.88 249.984H877.964ZM839.799 284.183L803.304 316.801H977.311L1006.41 284.183H839.799ZM801.634 318.31L765.199 351H946.898L975.939 318.31H801.634ZM763.47 352.509L727.035 385.127H916.486L945.527 352.509H763.47ZM725.305 386.708L688.87 419.326H886.014L915.114 386.708H725.305ZM687.141 420.835L650.646 453.453H855.542L884.583 420.835H687.141ZM648.976 455.034L612.541 487.652H825.129L854.23 455.034H648.976ZM826.978 487.652H1039.81L1061.51 455.034H856.019L826.978 487.652ZM1041.47 487.652H1254.54L1268.85 455.034H1063.18L1041.47 487.652ZM1255.97 487.652H1469.16L1476.13 454.962H1270.34L1255.97 487.652ZM1470.47 487.652H1683.77L1683.35 455.034H1477.45L1470.47 487.652ZM1683.77 385.199H1873.94L1866.13 352.509H1683.35L1683.77 385.199ZM1875.25 385.199H2065.3L2050.15 352.581H1867.5L1875.25 385.199ZM2066.73 385.199H2256.6L2234.12 352.581H2051.58L2066.73 385.199ZM2067.45 386.708L2082.59 419.398H2280.21L2257.67 386.708H2067.45ZM2083.31 420.907L2098.45 453.525H2303.77L2281.23 420.907H2083.31ZM2099.17 455.106L2114.32 487.724H2327.38L2304.84 455.106H2099.17ZM2328.99 487.724H2541.82L2511.94 455.106H2306.51L2328.99 487.724ZM2543.67 487.724H2756.26L2718.99 455.034H2513.79L2543.67 487.724ZM2758.4 487.724H2970.69L2926.03 455.106H2721.13L2758.4 487.724ZM2923.94 453.597L2879.34 420.979H2682.13L2719.4 453.597H2923.94ZM2877.25 419.398L2832.58 386.78H2643.13L2680.4 419.398H2877.25ZM2830.5 385.271L2785.89 352.581H2604.13L2641.4 385.271H2830.5ZM2783.75 351.072L2739.14 318.454H2565.08L2602.35 351.072H2783.75ZM2736.99 316.873L2692.39 284.255H2526.08L2563.35 316.873H2736.99ZM2690.24 282.746L2645.64 250.128H2487.02L2524.29 282.746H2690.24ZM2643.49 248.547L2598.89 215.929H2465.01C2463.1 215.881 2461.2 215.809 2459.29 215.714C2455.77 215.642 2452.13 215.498 2448.49 215.354C2451.24 218.037 2454.12 220.886 2457.14 223.904L2485.23 248.547H2643.49ZM2596.8 214.42L2564.18 190.567C2560.25 187.693 2556.25 184.748 2552.19 181.802H2491.55C2490.63 181.802 2489.72 181.802 2488.81 181.802C2451.12 181.802 2421.84 157.877 2390.83 132.587C2389.8 131.773 2388.76 130.935 2387.73 130.073C2387.77 130.168 2387.81 130.264 2387.85 130.36C2394.59 145.448 2401.56 160.967 2410.51 172.749C2411.82 174.522 2413.13 176.294 2414.44 178.066C2418.86 184.173 2423.45 190.424 2428.34 195.597C2430.72 197.896 2433.11 200.267 2435.55 202.637C2439.07 206.086 2442.83 209.75 2446.88 213.774C2451.06 213.917 2455.29 214.061 2459.35 214.205C2461.26 214.253 2463.14 214.325 2465.01 214.42H2596.8ZM2550.11 180.221C2543.67 175.48 2537.23 170.666 2530.85 165.852C2521.25 158.811 2512.42 150.908 2504.01 142.574C2474.55 128.348 2446.17 110.53 2418.74 93.2154C2399.72 81.3607 2378.72 76.8344 2357.85 79.349C2369.96 91.4192 2378.43 109.309 2386.48 127.127C2388.19 128.564 2389.9 129.977 2391.61 131.366C2423.15 157.087 2452.97 181.443 2491.55 180.221H2550.11ZM2500.85 139.341C2488.27 126.48 2476.58 112.327 2464.54 97.7417C2454.82 86.1026 2444.86 74.0324 2434.3 62.6088C2433.59 62.3214 2432.87 62.034 2432.16 61.7466C2403 50.4667 2374.07 58.8728 2345.87 70.2964C2349.68 72.3799 2353.14 74.9664 2356.36 77.9839C2377.95 75.1101 2399.66 79.6364 2419.27 91.8503C2445.57 108.447 2472.71 125.474 2500.85 139.341ZM2344.08 71.0867C2338.89 73.1702 2333.7 75.3974 2328.57 77.6247C2311.16 85.0967 2293.21 92.8561 2275.26 96.664C2266.56 98.6038 2258.63 100.328 2251.11 101.909C2240.74 104.064 2231.02 105.86 2221.65 107.441C2228.69 109.74 2236.38 111.177 2243.84 112.47C2251.77 113.907 2259.82 115.344 2267.27 117.931C2270.41 116.637 2273.53 115.32 2276.63 113.979C2282.3 111.536 2289.16 108.088 2295.78 104.783C2299.06 103.13 2302.1 101.621 2305.02 100.184C2320.58 88.258 2337.46 80.9296 2354.51 78.2713C2351.29 75.3975 2347.84 72.9547 2344.08 71.0867ZM2218.55 107.944C2204.54 110.243 2191.36 111.895 2178.42 113.045H2178.36L2178.24 112.973C2175.74 112.183 2169.18 112.039 2162.86 111.967C2159.76 111.895 2156.6 111.824 2153.73 111.68C2147.71 111.249 2141.69 110.674 2135.78 110.171C2114.97 108.447 2093.68 106.579 2072.22 106.722C2077.52 119.367 2083.61 131.51 2090.88 142.789L2093.15 146.094H2143.54C2158.15 142.718 2166.32 141.855 2173.53 141.137C2205.79 140.562 2236.44 130.576 2265.13 118.865C2258.27 116.637 2250.87 115.272 2243.66 113.979C2235.19 112.47 2226.42 110.89 2218.55 107.944ZM2070.78 106.722C2058.74 106.794 2046.69 107.513 2034.59 109.165C2031.57 109.357 2028.53 109.572 2025.46 109.812C2020.22 110.171 2014.73 110.53 2009.3 110.89C1999.17 111.68 1990.82 112.47 1983.01 113.404L1982.95 113.476L1982.89 113.404C1967.5 112.111 1953.37 106.651 1941.56 101.478C1939.45 100.52 1937.35 99.5618 1935.24 98.6039C1936.91 102.436 1938.52 106.196 1940.07 109.884C1945.38 122.529 1950.57 134.527 1955.75 146.094H2091.54L2089.93 143.723C2082.41 132.228 2076.21 119.727 2070.78 106.722ZM1933.45 97.7417C1930.99 96.5921 1928.54 95.4666 1926.12 94.3649C1918.07 90.5571 1909.66 86.6055 1901.25 83.3006C1890.58 78.7742 1875.25 74.9664 1862.85 82.4384C1846.63 92.1377 1830.17 99.1068 1813.53 103.489C1813.77 116.565 1814.96 129.642 1817.77 142.574C1818 143.723 1818.26 144.897 1818.54 146.094H1821.34C1825.48 145.999 1829.63 145.927 1833.81 145.879C1863.74 145.448 1894.75 144.945 1924.92 146.094H1954.32C1949.19 134.743 1944.13 122.96 1938.94 110.602C1937.19 106.435 1935.36 102.148 1933.45 97.7417ZM1812.22 103.777C1798.92 107.154 1785.56 108.878 1772.15 108.878C1743.11 108.878 1713.95 100.975 1685.5 85.1686C1681.92 84.0909 1678.35 83.085 1675.01 82.2947C1675.13 83.4442 1675.22 84.5938 1675.3 85.7434C1675.58 89.4315 1675.88 93.1196 1676.2 96.8077C1677.45 111.536 1678.52 125.618 1679.3 139.197C1682.82 139.556 1686.28 139.916 1689.44 140.203C1699.63 141.065 1710.01 142.143 1720.03 143.149C1725.63 143.771 1731.28 144.37 1736.96 144.945C1737 144.945 1737.02 144.945 1737.02 144.945C1746.8 144.945 1756.88 145.52 1766.42 146.094H1817.23C1816.99 145.041 1816.75 143.987 1816.51 142.933C1813.71 130.001 1812.52 116.925 1812.22 103.777ZM1674.95 96.9514C1674.63 93.2633 1674.33 89.5751 1674.05 85.887C1673.93 84.5938 1673.81 83.2766 1673.69 81.9355C1670.71 81.217 1667.97 80.6423 1665.7 80.2112C1655.03 78.4869 1646.44 77.9839 1637.97 78.7024C1616.81 80.2112 1595.28 79.4927 1574.53 78.8461C1559.44 78.415 1544.05 77.9839 1528.67 78.2713C1528.37 85.5278 1528.19 93.3591 1528.07 102.196C1528.07 102.723 1528.07 103.25 1528.07 103.777C1568.09 119.655 1614.42 134.958 1663.38 137.257C1666.4 137.64 1669.38 138 1672.32 138.335C1674.23 138.574 1676.12 138.79 1677.99 138.982C1677.21 125.546 1676.2 111.608 1674.95 96.9514ZM1528.01 105.357C1527.95 113.979 1527.95 122.601 1528.01 131.078C1528.01 135.341 1528.01 139.604 1528.01 143.867C1540.71 146.31 1553.06 151.411 1565.1 156.368C1580.13 162.619 1595.7 169.013 1611.68 170.307C1615.97 170.881 1620.2 171.456 1624.68 172.031C1640.3 173.971 1656.46 176.054 1675.24 180.221H1679.78C1679.48 167.505 1678.88 154.285 1678.11 140.562C1676.16 140.323 1674.19 140.083 1672.2 139.844C1669.22 139.484 1666.24 139.125 1663.26 138.838C1614.36 136.467 1568.03 121.307 1528.01 105.357ZM1526.22 201.775C1537.55 203.069 1548.88 205.224 1559.86 207.307C1575.66 210.397 1592.06 213.486 1608.52 213.846C1626.64 214.348 1644.77 214.42 1661.65 214.42H1680.31L1680.08 195.525C1680.04 190.974 1679.96 186.4 1679.84 181.802H1675.13L1675.07 181.73C1656.28 177.635 1640.12 175.551 1624.56 173.54C1620.09 172.965 1615.85 172.39 1611.56 171.815C1595.4 170.522 1579.83 164.056 1564.75 157.877C1552.76 152.92 1540.54 147.891 1528.01 145.448C1527.95 164.128 1527.71 183.023 1526.22 201.775ZM1527.42 78.3431C1520.2 78.4868 1513.05 78.8461 1505.89 79.4927C1493.67 80.5704 1481.14 82.151 1468.98 83.7316C1458.12 85.0967 1447.03 86.5337 1435.94 87.6114C1425.86 98.1728 1416.68 110.602 1408.57 124.397C1435.58 124.109 1463.97 117.068 1491.58 103.346C1499.87 99.1786 1507.98 95.6582 1515.61 98.7476C1519.27 100.232 1522.98 101.741 1526.76 103.274C1526.76 102.891 1526.76 102.531 1526.76 102.196C1526.88 93.4309 1527.12 85.5278 1527.42 78.3431ZM1433.85 87.8269C1422.46 88.8327 1411.07 89.5512 1399.74 89.4793C1391.69 89.4075 1382.39 88.4735 1372.08 86.6055C1352.69 84.5938 1336.3 72.3799 1320.37 60.5971C1310.3 53.0532 1299.8 45.2938 1288.65 40.1927C1287.26 39.6179 1285.81 39.1629 1284.3 38.8276C1283.9 41.7494 1283.48 44.6472 1283.04 47.5211C1281.26 60.0223 1279.47 72.5955 1277.32 85.0967C1298.49 79.6364 1319.12 94.5805 1337.79 108.088L1339.58 109.381C1343.87 110.961 1347.92 112.327 1351.8 113.62C1356.39 115.2 1360.69 116.637 1364.5 118.146C1378.04 122.313 1392.29 124.325 1407.02 124.397C1414.95 110.674 1423.96 98.3883 1433.85 87.8269ZM1283.04 38.5402C1274.76 36.9596 1265.39 39.115 1255.97 44.7909C1243.09 51.6163 1230.87 60.7408 1219.06 69.5779C1204.21 80.6423 1189 91.994 1172.31 98.9631C1164.02 108.95 1155.61 118.793 1147.02 128.564L1131.46 146.023C1139.33 145.879 1147.68 145.232 1154.36 144.657C1158.29 144.37 1162.29 144.011 1166.28 143.652C1171.71 143.149 1176.78 142.646 1181.79 142.286C1212.32 139.341 1236.83 116.206 1258.48 95.8019C1264.32 90.4852 1270.16 87.2521 1275.95 85.5278C1278.15 72.7391 1280 59.9505 1281.79 47.2337C1282.19 44.3598 1282.61 41.462 1283.04 38.5402ZM1169.56 100.041C1162.65 102.699 1155.49 104.639 1147.98 105.429H1147.92L1147.8 105.357C1139.39 102.987 1131.28 99.6815 1121.62 95.5863C1107.37 87.755 1093.89 77.481 1080.89 67.4944C1071.53 60.2379 1061.81 52.8377 1051.85 46.2997C1046.07 42.851 1040.16 44.4317 1034.44 47.5211C1024.6 80.5704 1012.61 112.614 993.59 139.269C1015.89 133.665 1038.97 128.348 1063.12 134.096C1065.19 134.575 1067.26 135.078 1069.32 135.605C1089.12 140.418 1107.85 144.945 1127.7 146.094C1128.3 146.094 1128.92 146.094 1129.55 146.094L1146.13 127.414C1154.06 118.433 1161.87 109.237 1169.56 100.041ZM1032.83 48.455C1031.91 48.9819 1031 49.5567 1030.09 50.1794C1023.7 55.2086 1017.32 60.6689 1011.12 65.9137C983.751 89.2638 957.811 111.249 924.596 112.327C921.256 112.398 917.619 112.614 914.16 112.901C910.403 113.189 906.527 113.404 903.009 113.404H900.683L856.854 146.094H917.5C921.256 145.879 925.192 145.735 928.949 145.52C942.426 144.873 956.261 144.155 969.558 145.017C976.655 143.508 983.811 141.712 990.728 139.987C990.966 139.94 991.225 139.892 991.503 139.844C1010.76 113.404 1022.87 81.5044 1032.83 48.455ZM854.826 147.603L810.997 180.221H953.816L961.926 172.965C965.444 169.876 969.32 165.565 973.077 161.398C975.76 158.308 978.384 155.506 980.769 153.063C984.069 149.423 987.17 145.639 990.072 141.712C983.393 143.436 976.535 145.16 969.737 146.525H969.678H969.618C956.32 145.663 942.426 146.382 929.009 147.028C925.252 147.244 921.316 147.459 917.5 147.603H854.826ZM808.969 181.802L765.14 214.42H915.711L952.146 181.802H808.969ZM763.052 215.929L719.223 248.547H877.546L913.981 215.929H763.052ZM717.195 250.128L673.366 282.746H839.322L875.817 250.128H717.195ZM671.279 284.255L627.449 316.873H801.157L837.652 284.255H671.279ZM625.362 318.454L581.532 351.072H762.993L799.428 318.454H625.362ZM579.445 352.581L535.675 385.271H724.828L761.263 352.581H579.445ZM533.528 386.78L489.699 419.398H686.604L723.039 386.78H533.528ZM487.671 420.979L443.842 453.597H648.38L684.875 420.979H487.671ZM441.755 455.106L397.925 487.724H610.275L646.71 455.106H441.755ZM395.838 489.305L352.008 521.923H572.051L608.486 489.305H395.838ZM574.198 521.923H794.479L823.579 489.305H610.633L574.198 521.923ZM796.387 521.923H1016.97L1038.67 489.233H825.487L796.387 521.923ZM1018.58 521.923H1239.33L1253.71 489.305H1040.28L1018.58 521.923ZM1240.77 521.923H1461.7L1468.68 489.305H1255.14L1240.77 521.923ZM1463.01 521.923H1684.01L1683.59 489.305H1469.99L1463.01 521.923ZM1684.01 419.398H1881.87L1874.12 386.78H1683.65L1684.01 419.398ZM1883.18 419.398H2080.92L2065.78 386.78H1875.37L1883.18 419.398ZM1883.6 420.907L1891.35 453.597H2096.84L2081.7 420.907H1883.6ZM1891.71 455.106L1899.46 487.724H2112.71L2097.56 455.106H1891.71ZM1899.82 489.305L1907.57 521.923H2128.51L2113.36 489.305H1899.82ZM2130 521.923H2350.7L2328.22 489.305H2114.85L2130 521.923ZM2352.37 521.923H2572.89L2543.01 489.233H2329.89L2352.37 521.923ZM2574.8 521.923H2795.08L2757.81 489.305H2544.92L2574.8 521.923ZM2797.22 521.923H3017.21L2972.6 489.305H2759.95L2797.22 521.923ZM3132.95 455.106H2928.35L2972.96 487.724H3184.95L3132.95 455.106ZM3078.51 420.979H2881.6L2926.21 453.597H3130.51L3078.51 420.979ZM3024.06 386.852H2834.85L2879.52 419.47H3076.06L3024.06 386.852ZM2969.62 352.653H2788.16L2832.76 385.271H3021.62L2969.62 352.653ZM2915.18 318.526H2741.41L2786.01 351.144H2967.17L2915.18 318.526ZM2860.73 284.327H2694.66L2739.32 316.945H2912.67L2860.73 284.327ZM2806.29 250.2H2648.02L2692.63 282.818H2858.29L2806.29 250.2ZM2751.84 216.073H2601.27L2645.88 248.691H2803.84L2751.84 216.073ZM2697.4 181.874H2554.58C2558 184.412 2561.4 186.903 2564.78 189.346L2599.18 214.492H2749.4L2697.4 181.874ZM2642.95 147.747H2559.29H2559.23C2540.98 144.945 2523.03 143.867 2506.34 143.077C2514.21 150.836 2522.44 158.093 2531.38 164.631C2538.36 169.947 2545.46 175.192 2552.49 180.365H2694.95L2642.95 147.747ZM2588.39 113.476C2581.06 113.404 2572.77 113.189 2563.41 112.614C2531.74 110.602 2503.12 96.0892 2475.45 82.0792C2463.04 75.7567 2450.22 69.2905 2437.22 63.902C2447 74.679 2456.31 85.887 2465.31 96.8077C2478.31 112.542 2490.89 127.702 2504.55 141.353C2504.63 141.4 2504.73 141.448 2504.85 141.496C2522.02 142.215 2540.51 143.364 2559.35 146.166H2640.51L2588.39 113.476ZM2388.8 48.5988C2403.95 45.9404 2419.81 45.653 2432.69 59.0165C2433.41 59.7828 2434.12 60.5731 2434.84 61.3874C2448.85 66.9196 2462.63 73.8887 2475.93 80.6422C2503.48 94.6523 2531.98 109.093 2563.41 111.105C2571.75 111.608 2579.15 111.824 2585.89 111.967L2570.62 102.34C2552.02 90.4134 2533.53 77.9839 2515.34 65.5545C2494.83 58.5854 2474.67 49.892 2454.88 41.4141C2450.46 39.4982 2446.05 37.6062 2441.64 35.7382C2436.09 33.2236 2430.55 32.9362 2426.13 34.9479C2413.43 39.1869 2400.91 44.0006 2388.8 48.5988ZM2337.34 66.9196C2339.69 67.6381 2341.91 68.5002 2344.02 69.506C2372.64 57.7951 2402.04 48.958 2431.86 60.166C2416.83 44.5753 2398.22 47.9521 2380.04 51.9755C2365.67 57.4359 2351.59 62.6807 2337.34 66.9196ZM2163.1 68.7158C2163.81 69.6737 2164.53 70.6317 2165.24 71.5896C2179.61 90.9163 2200.25 100.113 2218.55 106.507C2228.75 104.854 2239.36 102.843 2250.75 100.544C2258.33 98.9631 2266.2 97.2388 2274.91 95.2989C2292.74 91.4911 2310.68 83.8035 2328.04 76.3315C2332.75 74.3198 2337.4 72.2362 2342.17 70.2964C2339.79 69.2426 2337.26 68.3805 2334.6 67.7099C2315.75 73.1702 2296.67 76.8344 2276.58 77.0499C2264.53 77.9121 2251.83 78.7024 2241.39 78.1276C2219.51 76.9062 2199.35 75.0382 2179.91 72.5236C2176.69 71.7333 2172.64 70.7993 2168.28 69.8653C2166.61 69.4821 2164.88 69.0989 2163.1 68.7158ZM2054.68 55.5679C2059.63 72.4518 2064.94 89.2638 2071.5 105.286C2093.15 105.142 2114.67 107.01 2135.78 108.806C2141.63 109.309 2147.71 109.812 2153.67 110.315C2156.48 110.387 2159.7 110.459 2162.8 110.53C2169.42 110.674 2175.62 110.818 2178.36 111.608C2190.35 110.53 2202.51 109.022 2215.45 107.01C2197.68 100.544 2178.18 91.2755 2164.29 72.5954C2163.17 71.1585 2162.08 69.6976 2161.01 68.2128C2155.94 67.0633 2150.75 65.8419 2145.98 64.5487C2137.69 61.8185 2129.22 58.6572 2120.04 54.9931C2104.89 48.0958 2088.91 46.587 2072.51 50.3949C2066.43 51.8318 2060.53 53.628 2054.68 55.5679ZM1899.58 17.3455C1906.26 30.709 1911.51 42.2762 1915.32 52.2629C1919.68 63.5428 1925.22 76.1159 1930.53 88.1861C1931.78 91.06 1933.03 93.862 1934.23 96.664C1936.79 97.8135 1939.36 99.035 1941.92 100.113C1953.61 105.286 1967.62 110.746 1982.83 112.039C1990.64 111.105 1998.99 110.315 2009.12 109.525C2014.55 109.093 2020.04 108.734 2025.29 108.375C2028.35 108.183 2031.39 107.992 2034.41 107.8C2046.28 106.148 2058.2 105.429 2070.07 105.286C2063.57 89.4075 2058.32 72.7391 2053.49 55.9989C2048.84 57.5795 2044.25 59.232 2039.72 60.8845C2036.81 61.9382 2033.93 62.968 2031.07 63.9739C2024.99 66.1293 2017.77 67.8536 2009.12 69.1468H2009.07C1996.07 69.506 1982.71 66.6322 1968.16 60.2379C1955.58 54.7057 1941.56 45.9404 1928.38 37.3907C1921.58 33.7984 1914.97 28.841 1908.59 24.0273C1905.6 21.7282 1902.62 19.5009 1899.58 17.3455ZM1815.32 54.2028C1814.25 69.9371 1813.11 85.9589 1813.35 102.052C1829.81 97.6698 1846.15 90.7726 1862.13 81.217C1874.95 73.5294 1890.64 77.3373 1901.55 81.9355C1910.02 85.2404 1918.37 89.192 1926.47 93.0717C1928.46 93.9817 1930.45 94.8918 1932.44 95.8019C1931.44 93.5507 1930.43 91.2516 1929.4 88.9046C1924.09 76.7625 1918.54 64.2613 1914.19 52.9095C1910.14 42.3481 1904.53 30.0624 1897.26 15.7649C1889.32 10.3764 1880.98 5.99378 1871.97 5.05978C1852.65 3.19177 1837.15 15.9086 1820.75 29.3439C1819.4 30.4456 1818.04 31.5472 1816.69 32.6488C1816.33 39.9053 1815.86 47.09 1815.32 54.2028ZM1670.24 33.0081C1670.39 34.7324 1670.53 36.4567 1670.65 38.181C1670.93 41.2465 1671.19 44.3119 1671.43 47.3773C1672.86 58.298 1673.87 69.6497 1674.77 80.7859C1678.23 81.6481 1681.98 82.7258 1685.74 83.8035L1685.86 83.8753C1727.3 106.866 1770.18 113.045 1812.1 102.34C1811.86 86.1744 1813 69.9371 1814.07 54.0591C1814.55 47.3773 1815.02 40.5519 1815.38 33.7265C1806.91 40.6238 1798.09 47.1618 1788.61 51.1134C1761.06 63.0399 1733.45 53.2687 1706.73 43.8569C1694.8 39.6898 1682.46 35.3071 1670.24 33.0081ZM1528.67 75.8285C1528.67 76.1638 1528.67 76.523 1528.67 76.9062C1543.99 76.547 1559.38 76.9781 1574.41 77.481C1595.22 78.1276 1616.69 78.7742 1637.8 77.2654C1646.32 76.6188 1654.97 77.0499 1665.76 78.8461C1667.97 79.2053 1670.59 79.7801 1673.46 80.4985C1672.56 69.506 1671.55 58.298 1670.18 47.5929C1669.94 44.5035 1669.64 41.4141 1669.4 38.3247C1669.24 36.5046 1669.08 34.6366 1668.92 32.7207C1668.21 32.577 1667.51 32.4572 1666.84 32.3614C1654.79 30.4934 1640.36 30.5653 1621.34 32.577C1595.22 35.3072 1567.25 42.7074 1535.88 55.2086C1532.19 62.3933 1529.15 69.2187 1528.67 75.8285ZM1437.49 86.0307C1447.99 84.953 1458.42 83.6598 1468.74 82.2947C1480.9 80.7859 1493.43 79.1335 1505.65 78.0558C1512.87 77.4092 1520.14 77.0499 1527.36 76.9062C1527.4 76.523 1527.42 76.1159 1527.42 75.6849C1527.89 69.2905 1530.58 62.7525 1534.04 55.9989C1533.6 56.1426 1533.16 56.3103 1532.72 56.5019C1523 61.1719 1512.75 62.6806 1502.31 63.902C1492.89 65.0516 1483.11 65.9137 1472.5 66.6322C1468.12 66.8717 1463.77 67.0872 1459.44 67.2788C1451.74 72.6673 1444.41 78.9179 1437.49 86.0307ZM1284.42 37.4625C1285.97 37.7978 1287.48 38.2768 1288.95 38.8995C1300.28 44.0006 1310.77 51.8318 1320.97 59.4475C1336.71 71.1585 1352.99 83.2287 1372.13 85.2404C1382.39 87.0366 1391.63 87.9706 1399.63 88.0424C1411.43 88.1143 1423.42 87.3958 1435.29 86.2463C1442.08 79.1335 1449.24 72.811 1456.75 67.4225C1441.96 67.9255 1427.23 67.9973 1412.86 67.4225C1403.86 67.1351 1393.66 65.6982 1383.82 64.3331L1380.84 63.902C1352.52 59.0883 1326.7 44.288 1301.77 30.0624C1296.88 27.2604 1291.81 24.3865 1286.8 21.5845C1285.97 26.8293 1285.19 32.1459 1284.42 37.4625ZM1174.28 96.5203C1189.9 89.5512 1204.21 78.8461 1218.22 68.4284C1230.15 59.5194 1242.44 50.3231 1255.32 43.5695C1264.92 37.7499 1274.64 35.5227 1283.16 37.1751C1283.94 31.7148 1284.77 26.3264 1285.61 20.9379C1270.64 12.8192 1254.78 12.6037 1243.15 20.2912C1238.06 23.5483 1232.93 26.5658 1227.77 29.3439C1210.77 51.4726 1192.88 74.1042 1174.28 96.5203ZM1045.11 9.29874C1041.83 21.3689 1038.49 33.5828 1034.92 45.653C1040.58 42.7792 1046.42 41.5578 1052.33 45.0783C1062.35 51.6163 1072.07 59.0883 1081.49 66.273C1094.43 76.2596 1107.85 86.5337 1121.98 94.2931C1131.52 98.3883 1139.57 101.55 1147.86 103.992C1156.15 103.13 1163.96 100.903 1171.47 97.7417C1190.02 75.4693 1207.85 52.9095 1224.84 30.9245C1205.82 40.7675 1186.62 47.09 1168.49 49.389C1140.88 52.9095 1115.66 47.4492 1093.47 33.2236C1090.25 31.1161 1087.03 29.0086 1083.81 26.9011C1078.98 23.7399 1074.03 20.4349 1069.14 17.3455C1060.44 11.7415 1053.22 7.35889 1046.6 3.69472C1046.09 5.56273 1045.59 7.43073 1045.11 9.29874ZM906.766 108.95L902.651 112.039H902.89C906.348 112.039 910.224 111.752 913.981 111.464C917.44 111.249 921.078 110.961 924.477 110.961C957.274 109.884 983.035 87.9706 1010.29 64.836C1016.49 59.5194 1022.93 54.1309 1029.31 48.958C1030.66 48.0958 1031.99 47.2815 1033.31 46.5152C1037.06 34.0139 1040.46 21.3689 1043.86 8.7958C1044.38 6.8799 1044.91 4.96399 1045.47 3.04809C1045.23 2.9044 1044.99 2.78465 1044.75 2.68886L1044.69 2.61703C1041.89 0.605328 1038.43 2.54519 1035.09 4.91612C1030.8 8.22106 1026.45 11.6697 1022.27 14.9746C1006.35 27.4041 990.787 39.5461 974.806 49.9638C953.219 70.7993 930.798 91.2037 906.766 108.95ZM773.13 112.039H900.206L906.05 107.657C928.055 91.4192 948.747 72.8828 968.724 53.9154C948.091 66.6322 926.683 76.1159 902.89 79.2772H902.83H902.771C895.853 78.4869 887.624 78.7743 879.633 79.1335C875.638 79.2772 871.821 79.4208 868.303 79.4208H824.295L773.13 112.039ZM719.521 146.166H854.349L898.179 113.548H770.745L719.521 146.166ZM665.912 180.365H808.432L852.262 147.747H717.076L665.912 180.365ZM612.303 214.492H762.575L806.405 181.874H663.526L612.303 214.492ZM558.693 248.691H716.659L760.488 216.001H609.858L558.693 248.691ZM505.084 282.89H670.802L714.631 250.272H556.308L505.084 282.89ZM451.475 317.017H624.885L668.714 284.399H502.639L451.475 317.017ZM397.865 351.216H579.028L622.857 318.598H449.089L397.865 351.216ZM344.256 385.343H533.111L576.941 352.725H395.421L344.256 385.343ZM290.647 419.542H487.254L531.084 386.852H341.871L290.647 419.542ZM237.038 453.741H441.337L485.167 421.122H288.202L237.038 453.741ZM183.428 487.868H395.48L439.31 455.25H234.652L183.428 487.868ZM129.819 522.067H349.563L393.393 489.449H181.043L129.819 522.067ZM347.476 523.576H127.374L76.2098 556.194H303.647L347.476 523.576ZM570.262 523.576H349.862L306.092 556.194H533.827L570.262 523.576ZM793.047 523.576H572.409L535.914 556.194H763.947L793.047 523.576ZM1015.83 523.576H794.896L765.855 556.266H994.127L1015.83 523.576ZM1238.56 523.576H1017.44L995.737 556.194H1224.25L1238.56 523.576ZM1461.28 523.576H1239.99L1225.62 556.194H1454.31L1461.28 523.576ZM1684.31 556.194L1683.95 523.576H1462.6L1455.62 556.194H1684.31ZM1684.31 453.669H1889.86L1882.11 421.051H1683.89L1684.31 453.669ZM1684.73 487.868H1898.03L1890.28 455.25H1684.37L1684.73 487.868ZM1685.14 521.995H1906.14L1898.39 489.377H1684.73L1685.14 521.995ZM1914.31 556.194L1906.5 523.504H1685.14L1685.56 556.194H1914.31ZM2144.25 556.194L2129.1 523.504H1907.87L1915.62 556.194H2144.25ZM2374.19 556.194L2351.71 523.504H2130.6L2145.74 556.194H2374.19ZM2604.07 556.194L2574.2 523.504H2353.32L2375.86 556.194H2604.07ZM2833.96 556.194L2796.69 523.504H2576.05L2605.98 556.194H2833.96ZM3063.84 556.194L3019.17 523.504H2798.83L2836.1 556.194H3063.84ZM3293.72 556.194L3241.72 523.504H3021.68L3066.28 556.194H3293.72Z" fill="#EF8B40"/>
</g>
<path style="mix-blend-mode:multiply" opacity="0.5" d="M1044.51 230.73C1070.75 230.73 1103.43 230.802 1138.61 230.802C1138.61 241.651 1138.79 251.782 1138.79 259.9C1112.85 259.9 1089.3 256.595 1072.3 251.35C1055.19 246.034 1044.63 238.777 1044.51 230.73ZM1072.3 209.895C1089.3 204.578 1112.85 201.345 1138.79 201.273C1138.79 211.116 1138.61 220.959 1138.61 230.802C1103.43 230.802 1070.75 230.73 1044.51 230.73C1044.51 230.683 1044.51 230.635 1044.51 230.587C1044.51 222.468 1055.13 215.14 1072.3 209.895ZM1138.61 230.802C1170.46 230.802 1202.3 230.73 1234.14 230.73C1234.03 238.777 1223.47 246.034 1206.42 251.35C1189.24 256.667 1165.51 259.9 1139.33 259.9C1139.17 259.9 1138.99 259.9 1138.79 259.9C1138.79 251.782 1138.61 241.651 1138.61 230.802ZM1138.79 201.273C1138.99 201.273 1139.17 201.273 1139.33 201.273C1165.51 201.273 1189.24 204.578 1206.42 209.895C1223.53 215.14 1234.14 222.468 1234.14 230.587C1234.14 230.635 1234.14 230.683 1234.14 230.73C1202.3 230.73 1170.46 230.802 1138.61 230.802C1138.61 220.959 1138.79 211.116 1138.79 201.273Z" fill="url(#paint1_linear_147_5954)"/>
<path d="M1182.5 223.618C1181.97 224.193 1177.08 237.197 1177.08 237.197L1132 225.199L1178.21 90.1992L1187.63 156.657L1182.5 223.618Z" fill="url(#paint2_linear_147_5954)"/>
<path d="M1178.21 90.1992L1225.68 224.265L1177.08 237.197L1178.21 90.1992Z" fill="url(#paint3_linear_147_5954)"/>
<path style="mix-blend-mode:multiply" opacity="0.5" d="M952.382 337.353C980.588 337.353 1015.77 337.425 1053.58 337.425C1053.58 352.441 1053.76 366.451 1053.76 377.659C1025.85 377.587 1000.56 373.061 982.258 365.804C963.891 358.476 952.501 348.489 952.382 337.353ZM982.258 308.614C1000.56 301.286 1025.85 296.832 1053.76 296.76C1053.76 310.339 1053.58 323.846 1053.58 337.425C1015.77 337.425 980.588 337.353 952.382 337.353C952.382 337.305 952.382 337.257 952.382 337.209C952.382 326.001 963.772 315.871 982.258 308.614ZM1053.58 337.425C1087.81 337.425 1122.04 337.353 1156.26 337.353C1156.14 348.489 1144.76 358.476 1126.39 365.804C1107.96 373.133 1082.44 377.659 1054.29 377.659C1054.13 377.659 1053.96 377.659 1053.76 377.659C1053.76 366.451 1053.58 352.441 1053.58 337.425ZM1053.76 296.76C1053.96 296.76 1054.13 296.76 1054.29 296.76C1082.44 296.76 1107.96 301.286 1126.39 308.614C1144.81 315.871 1156.26 326.001 1156.26 337.209C1156.26 337.257 1156.26 337.305 1156.26 337.353C1122.04 337.353 1087.81 337.425 1053.58 337.425C1053.58 323.846 1053.76 310.339 1053.76 296.76Z" fill="url(#paint4_linear_147_5954)"/>
<path d="M1075.34 343.029C1074.63 343.891 1068.07 361.206 1068.07 361.206L1007.96 344.825L1070.15 164.922L1082.44 253.652L1075.34 343.029Z" fill="url(#paint5_linear_147_5954)"/>
<path d="M1070.15 164.922L1132.95 344.251L1068.07 361.206L1070.15 164.922Z" fill="url(#paint6_linear_147_5954)"/>
<path style="mix-blend-mode:multiply" opacity="0.5" d="M1020.18 456.042C1056.38 456.042 1101.46 456.114 1149.94 456.114C1149.94 471.13 1150.24 485.14 1150.24 496.276C1114.4 496.276 1081.96 491.75 1058.47 484.494C1034.91 477.165 1020.36 467.179 1020.18 456.042ZM1058.47 427.304C1081.96 419.976 1114.4 415.521 1150.24 415.449C1150.24 429.028 1149.94 442.535 1149.94 456.114C1101.46 456.114 1056.38 456.042 1020.18 456.042C1020.18 455.995 1020.18 455.947 1020.18 455.899C1020.18 444.691 1034.79 434.56 1058.47 427.304ZM1149.94 456.114C1193.89 456.114 1237.78 456.042 1281.67 456.042C1281.49 467.179 1266.88 477.165 1243.39 484.494C1219.71 491.75 1187.03 496.276 1150.9 496.276C1150.66 496.276 1150.44 496.276 1150.24 496.276C1150.24 485.14 1149.94 471.13 1149.94 456.114ZM1150.24 415.449C1150.44 415.449 1150.66 415.449 1150.9 415.449C1187.03 415.449 1219.71 419.976 1243.39 427.304C1267.06 434.56 1281.67 444.691 1281.67 455.899C1281.67 455.947 1281.67 455.995 1281.67 456.042C1237.78 456.042 1193.89 456.114 1149.94 456.114C1149.94 442.535 1150.24 429.028 1150.24 415.449Z" fill="url(#paint7_linear_147_5954)"/>
<path d="M1195.08 449.861C1194.31 450.867 1186.44 471.703 1186.44 471.703L1114.1 452.376L1188.23 235.759L1203.31 342.379L1195.08 449.861Z" fill="url(#paint8_linear_147_5954)"/>
<path d="M1188.23 235.759L1264.44 450.939L1186.44 471.703L1188.23 235.759Z" fill="url(#paint9_linear_147_5954)"/>
<path style="mix-blend-mode:multiply" opacity="0.5" d="M2163.75 223.978C2190.28 223.978 2223.32 224.05 2258.86 224.05C2258.86 235.042 2259.04 245.244 2259.04 253.507C2232.8 253.435 2209.01 250.13 2191.83 244.813C2174.54 239.497 2163.87 232.096 2163.75 223.978ZM2191.83 202.855C2209.01 197.538 2232.8 194.233 2259.04 194.233C2259.04 204.148 2258.86 214.063 2258.86 224.05C2223.32 224.05 2190.28 223.978 2163.75 223.978C2163.75 223.93 2163.75 223.882 2163.75 223.834C2163.75 215.644 2174.48 208.243 2191.83 202.855ZM2258.86 224.05C2291.06 224.05 2323.2 223.978 2355.41 223.978C2355.29 232.096 2344.55 239.497 2327.32 244.813C2309.97 250.202 2286.05 253.507 2259.58 253.507C2259.42 253.507 2259.24 253.507 2259.04 253.507C2259.04 245.244 2258.86 235.042 2258.86 224.05ZM2259.04 194.233C2259.24 194.233 2259.42 194.233 2259.58 194.233C2286.05 194.233 2309.97 197.538 2327.32 202.855C2344.67 208.243 2355.41 215.644 2355.41 223.834C2355.41 223.882 2355.41 223.93 2355.41 223.978C2323.2 223.978 2291.06 224.05 2258.86 224.05C2258.86 214.063 2259.04 204.148 2259.04 194.233Z" fill="url(#paint10_linear_147_5954)"/>
<path d="M2209.84 156.656L2219.27 90.1982L2265.42 225.198L2220.34 237.196C2220.34 237.196 2215.45 224.192 2214.97 223.617L2209.84 156.656Z" fill="url(#paint11_linear_147_5954)"/>
<path d="M2220.34 237.196L2171.8 224.264L2219.27 90.1982L2220.34 237.196Z" fill="url(#paint12_linear_147_5954)"/>
<path style="mix-blend-mode:multiply" opacity="0.5" d="M2256.3 338.786C2279.97 338.786 2309.55 338.858 2341.33 338.858C2341.33 351.359 2341.51 362.998 2341.51 372.338C2318.02 372.338 2296.79 368.53 2281.4 362.495C2265.96 356.388 2256.36 348.054 2256.3 338.786ZM2281.4 314.789C2296.79 308.754 2318.02 304.946 2341.51 304.946C2341.51 316.226 2341.33 327.578 2341.33 338.858C2309.55 338.858 2279.97 338.786 2256.3 338.786C2256.3 338.738 2256.3 338.69 2256.3 338.642C2256.3 329.302 2265.84 320.896 2281.4 314.789ZM2341.33 338.858C2370.13 338.858 2398.88 338.786 2427.68 338.786C2427.56 348.054 2418.02 356.388 2402.57 362.495C2387.07 368.602 2365.66 372.338 2341.99 372.338C2341.83 372.338 2341.67 372.338 2341.51 372.338C2341.51 362.998 2341.33 351.359 2341.33 338.858ZM2341.51 304.946C2341.67 304.946 2341.83 304.946 2341.99 304.946C2365.66 304.946 2387.07 308.682 2402.57 314.789C2418.08 320.896 2427.68 329.302 2427.68 338.642C2427.68 338.69 2427.68 338.738 2427.68 338.786C2398.88 338.786 2370.13 338.858 2341.33 338.858C2341.33 327.578 2341.51 316.226 2341.51 304.946Z" fill="url(#paint13_linear_147_5954)"/>
<path d="M2315.03 253.65L2327.62 164.92L2389.28 345.111L2329.05 361.204C2329.05 361.204 2322.55 343.818 2321.89 343.027L2315.03 253.65Z" fill="url(#paint14_linear_147_5954)"/>
<path d="M2329.05 361.204L2264.23 343.961L2327.62 164.92L2329.05 361.204Z" fill="url(#paint15_linear_147_5954)"/>
<path style="mix-blend-mode:multiply" opacity="0.5" d="M2135.24 456.041C2171.44 456.041 2216.58 456.112 2265.06 456.112C2265.06 471.128 2265.3 485.138 2265.3 496.275C2229.46 496.275 2197.08 491.748 2173.59 484.492C2150.03 477.163 2135.42 467.177 2135.24 456.041ZM2173.59 427.302C2197.08 419.974 2229.46 415.519 2265.3 415.447C2265.3 429.026 2265.06 442.533 2265.06 456.112C2216.58 456.112 2171.44 456.041 2135.24 456.041C2135.24 455.993 2135.24 455.945 2135.24 455.897C2135.24 444.689 2149.91 434.558 2173.59 427.302ZM2265.06 456.112C2308.95 456.112 2352.9 456.041 2396.79 456.041C2396.61 467.177 2382 477.163 2358.51 484.492C2334.83 491.748 2302.15 496.275 2266.02 496.275C2265.78 496.275 2265.54 496.275 2265.3 496.275C2265.3 485.138 2265.06 471.128 2265.06 456.112ZM2265.3 415.447C2265.54 415.447 2265.78 415.447 2266.02 415.447C2302.15 415.447 2334.83 419.974 2358.51 427.302C2382.12 434.558 2396.79 444.689 2396.79 455.897C2396.79 455.945 2396.79 455.993 2396.79 456.041C2352.9 456.041 2308.95 456.112 2265.06 456.112C2265.06 442.533 2265.3 429.026 2265.3 415.447Z" fill="url(#paint16_linear_147_5954)"/>
<path d="M2194.1 342.379L2209.25 235.759L2283.37 452.376L2210.98 471.703C2210.98 471.703 2203.17 450.867 2202.33 449.861L2194.1 342.379Z" fill="url(#paint17_linear_147_5954)"/>
<path d="M2210.98 471.703L2133.04 450.939L2209.25 235.759L2210.98 471.703Z" fill="url(#paint18_linear_147_5954)"/>
<defs>
<linearGradient id="paint0_linear_147_5954" x1="-1.19266" y1="558.205" x2="-1.19266" y2="-14.7698" gradientUnits="userSpaceOnUse">
<stop stop-color="#000025"/>
<stop offset="0.6" stop-color="#6300EA"/>
<stop offset="1" stop-color="#00FFFF"/>
</linearGradient>
<linearGradient id="paint1_linear_147_5954" x1="1072.3" y1="251.35" x2="1139.92" y2="236.917" gradientUnits="userSpaceOnUse">
<stop stop-color="white"/>
<stop offset="1"/>
</linearGradient>
<linearGradient id="paint2_linear_147_5954" x1="1198.66" y1="108.305" x2="1177.77" y2="219.262" gradientUnits="userSpaceOnUse">
<stop stop-color="#39008C"/>
<stop offset="1" stop-color="#00003B"/>
</linearGradient>
<linearGradient id="paint3_linear_147_5954" x1="1208.26" y1="92.0672" x2="1236.39" y2="229.93" gradientUnits="userSpaceOnUse">
<stop stop-color="#00FFFF"/>
<stop offset="1" stop-color="#39008C"/>
</linearGradient>
<linearGradient id="paint4_linear_147_5954" x1="982.258" y1="365.804" x2="1055.83" y2="345.637" gradientUnits="userSpaceOnUse">
<stop stop-color="white"/>
<stop offset="1"/>
</linearGradient>
<linearGradient id="paint5_linear_147_5954" x1="1096.99" y1="189.134" x2="1068.4" y2="337.115" gradientUnits="userSpaceOnUse">
<stop stop-color="#39008C"/>
<stop offset="1" stop-color="#00003B"/>
</linearGradient>
<linearGradient id="paint6_linear_147_5954" x1="1109.87" y1="167.724" x2="1146.65" y2="351.942" gradientUnits="userSpaceOnUse">
<stop stop-color="#00FFFF"/>
<stop offset="1" stop-color="#39008C"/>
</linearGradient>
<linearGradient id="paint7_linear_147_5954" x1="1058.47" y1="484.494" x2="1151.75" y2="464.558" gradientUnits="userSpaceOnUse">
<stop stop-color="white"/>
<stop offset="1"/>
</linearGradient>
<linearGradient id="paint8_linear_147_5954" x1="1220.37" y1="264.641" x2="1186.8" y2="442.767" gradientUnits="userSpaceOnUse">
<stop stop-color="#39008C"/>
<stop offset="1" stop-color="#00003B"/>
</linearGradient>
<linearGradient id="paint9_linear_147_5954" x1="1235.75" y1="238.92" x2="1280.97" y2="460.142" gradientUnits="userSpaceOnUse">
<stop stop-color="#00FFFF"/>
<stop offset="1" stop-color="#39008C"/>
</linearGradient>
<linearGradient id="paint10_linear_147_5954" x1="2191.83" y1="244.813" x2="2260.18" y2="230.228" gradientUnits="userSpaceOnUse">
<stop stop-color="white"/>
<stop offset="1"/>
</linearGradient>
<linearGradient id="paint11_linear_147_5954" x1="2198.81" y1="108.304" x2="2219.71" y2="219.261" gradientUnits="userSpaceOnUse">
<stop stop-color="#39008C"/>
<stop offset="1" stop-color="#00003B"/>
</linearGradient>
<linearGradient id="paint12_linear_147_5954" x1="2189.21" y1="92.0662" x2="2161" y2="229.918" gradientUnits="userSpaceOnUse">
<stop stop-color="#00FFFF"/>
<stop offset="1" stop-color="#39008C"/>
</linearGradient>
<linearGradient id="paint13_linear_147_5954" x1="2281.4" y1="362.495" x2="2343.19" y2="345.706" gradientUnits="userSpaceOnUse">
<stop stop-color="white"/>
<stop offset="1"/>
</linearGradient>
<linearGradient id="paint14_linear_147_5954" x1="2300.66" y1="189.06" x2="2328.58" y2="337.19" gradientUnits="userSpaceOnUse">
<stop stop-color="#39008C"/>
<stop offset="1" stop-color="#00003B"/>
</linearGradient>
<linearGradient id="paint15_linear_147_5954" x1="2287.9" y1="167.506" x2="2250.29" y2="351.552" gradientUnits="userSpaceOnUse">
<stop stop-color="#00FFFF"/>
<stop offset="1" stop-color="#39008C"/>
</linearGradient>
<linearGradient id="paint16_linear_147_5954" x1="2173.59" y1="484.492" x2="2266.87" y2="464.556" gradientUnits="userSpaceOnUse">
<stop stop-color="white"/>
<stop offset="1"/>
</linearGradient>
<linearGradient id="paint17_linear_147_5954" x1="2177.11" y1="264.641" x2="2210.68" y2="442.767" gradientUnits="userSpaceOnUse">
<stop stop-color="#39008C"/>
<stop offset="1" stop-color="#00003B"/>
</linearGradient>
<linearGradient id="paint18_linear_147_5954" x1="2161.66" y1="238.92" x2="2116.44" y2="460.142" gradientUnits="userSpaceOnUse">
<stop stop-color="#00FFFF"/>
<stop offset="1" stop-color="#39008C"/>
</linearGradient>
</defs>
</svg>
