<svg width="3780" height="468" viewBox="0 0 3780 468" fill="none" xmlns="http://www.w3.org/2000/svg">
<path d="M3780 456.193H3700.08L3723.49 466.884L3722.82 468L3697.01 456.193H3441.54L3461.67 466.884L3460.93 468L3438.8 456.193H3183.06L3199.85 466.942L3199.04 467.941L3180.58 456.193H2924.51L2938.09 467.001L2937.09 467.882L2922.37 456.193H2666.04L2676.27 467.06L2675.2 467.823L2664.16 456.193H2407.56L2414.51 467.118L2413.24 467.765L2405.89 456.193H2149.08L2152.76 467.295L2151.35 467.588L2147.61 456.193H1890.74L1890.94 467.412L1889.46 467.471L1889.26 456.193H1632.39L1629.05 467.588L1627.64 467.295L1630.92 456.193H1374.11L1367.16 467.706L1365.89 467.118L1372.51 456.193H1115.84L1105.2 467.823L1104.07 467.06L1114.03 456.193H857.626L843.314 467.882L842.311 467.001L855.486 456.193H599.415L581.358 467.941L580.556 466.942L597.008 456.193H341.204L319.47 468L318.734 466.884L338.463 456.193H82.9939L57.5807 468L56.912 466.884L79.9844 456.193H0V454.9H82.6595L140.04 428.232H62.864V426.998H142.782L200.162 400.329H125.795V399.037H202.904L260.284 372.368H188.659V371.135H263.026L320.406 344.466H251.59V343.174H323.148L380.528 316.505H314.454V315.271H383.27L440.65 288.544H377.385V287.31H443.392L500.772 260.642H440.316V259.408H503.514L560.894 232.681H503.18V231.447H563.636L621.016 204.779H566.111V203.486H623.758L681.138 176.818H628.975V175.584H683.88L741.26 148.915H691.905V147.623H744.002L801.382 120.954H754.769V119.721H804.124L861.505 93.052H817.7V91.7597H864.247L921.627 65.091H880.564V63.8574H924.168H924.369H927.378H974.058C978.004 63.8574 982.217 63.7399 986.698 63.5637C995.659 63.3287 1004.95 63.0938 1012.78 63.7399C1041.8 60.9203 1067.69 51.8741 1092.76 39.9496L1100.19 36.3664C1115.5 28.7299 1130.55 20.0949 1145.93 11.3424C1150.68 8.6403 1155.56 5.87944 1160.38 3.11859C1164.46 0.945148 1168.8 -0.758351 1172.55 1.18012C1172.77 1.29761 1172.97 1.39551 1173.15 1.47383L1174.49 2.00252C1181.91 4.99834 1190.07 8.64031 1199.9 13.2222C1205.45 15.8068 1211 18.4501 1216.42 21.0348C1220.03 22.7579 1223.64 24.4809 1227.25 26.204C1280.82 51.2867 1338.67 37.8936 1376.32 23.1495L1379.73 21.7984C1384.81 19.7425 1389.5 17.6278 1393.71 15.6893C1407.08 9.22773 1425.21 9.3452 1442.33 16.0417L1443.67 16.5704C1449.42 18.8614 1455.17 21.2697 1460.79 23.5607C1488.67 35.1915 1517.5 47.2335 1549.06 51.1692L1552.41 51.5217C1563.37 52.6378 1574.74 53.8126 1584.84 54.0476C1601.76 54.5175 1619.15 54.4588 1636.6 53.9301L1639.75 53.8126C1643.67 53.6951 1647.62 53.5581 1651.58 53.4014C1663.49 52.814 1674.39 52.1091 1684.89 51.1692C1696.59 50.1706 1707.89 48.9958 1718.73 45.1776C1719.75 44.8643 1720.78 44.5706 1721.81 44.2965L1723.95 43.6503C1758.52 33.6642 1789.48 27.7313 1818.44 25.5579C1839.84 23.9131 1856.16 23.8544 1869.74 25.3817C1870.45 25.46 1871.14 25.5383 1871.81 25.6166L1873.28 25.8516C1887.12 27.7313 1901.17 31.3733 1914.74 34.8391C1944.5 42.4755 1975.2 50.4056 2005.7 40.772C2016.46 37.4824 2026.56 31.902 2036.33 26.1453L2037.8 25.2642C2039 24.5593 2040.2 23.8544 2041.41 23.1495C2059.2 12.4585 2077.59 1.47382 2099.73 3.0011C2109.29 3.76474 2118.12 6.9368 2126.48 10.8725L2129.02 12.106C2133.3 14.2207 2137.38 16.5117 2141.52 18.7439C2148.61 22.6208 2155.97 26.674 2163.53 29.6111C2178.37 36.6013 2193.95 43.7678 2208.07 48.2321C2224.18 53.4014 2238.96 55.7511 2253.27 55.4574C2262.97 54.4 2270.93 52.9902 2277.68 51.2867C2280.89 50.4643 2284.13 49.6224 2287.38 48.7608C2292.4 47.4098 2297.55 46.0587 2302.7 44.7664L2304.1 44.4139C2310.72 42.8279 2317.41 41.3006 2324.23 40.1258C2342.89 36.9538 2361.08 38.2461 2378.33 43.944C2388.57 46.9398 2398.06 49.4657 2407.29 51.7566C2412.04 52.6378 2417.12 53.5189 2422.2 54.4L2424.54 54.7525C2427.15 55.2224 2429.76 55.6336 2432.24 56.0448C2437.05 56.8672 2441.67 57.572 2445.21 58.2182C2466.94 60.2742 2489.48 61.7427 2514.03 62.8001C2525.66 63.27 2539.84 62.6239 2553.42 61.919C2575.15 61.7427 2595.82 58.9231 2616.28 54.6937L2618.42 54.2238C2631.73 51.4042 2644.9 48.0559 2658.21 44.4139L2669.11 41.4181C2671.88 40.6349 2674.66 39.8517 2677.47 39.0685C2691.52 35.1915 2706.03 31.1384 2720.67 27.5551C2725.89 25.8516 2732.44 26.0278 2739 28.2013C2743.95 29.7285 2748.9 31.2754 2753.85 32.8419C2774.18 39.186 2794.84 45.7063 2815.84 51.1105L2821.72 52.6378C2842.92 57.8658 2864.46 61.9777 2886.26 63.7987L2886.13 65.0323C2866.13 63.3875 2846.34 59.8043 2826.94 55.1637C2845.67 64.5036 2864.73 73.7848 2883.85 82.7722L2903.45 91.7009C2908 91.7401 2912.25 91.7597 2916.22 91.7597H2950.13V93.052H2916.22C2913.1 93.052 2909.78 93.0324 2906.26 92.9932L2964.64 119.721H3014V120.954H2967.38L3025.7 147.623H3077.8V148.915H3028.44L3086.76 175.584H3141.66V176.818H3089.5L3147.82 203.486H3205.46V204.779H3150.56L3208.87 231.447H3269.33V232.681H3211.62L3269.93 259.408H3333.13V260.642H3272.67L3330.99 287.31H3397V288.544H3333.73L3392.05 315.271H3460.8V316.505H3394.79L3453.11 343.174H3524.67V344.466H3455.85L3514.17 371.135H3588.47V372.368H3516.91L3575.22 399.037H3652.33V400.329H3577.97L3636.28 426.998H3716.13V428.232H3639.02L3697.34 454.9H3780V456.193Z" fill="url(#paint0_linear_188_2802)"/>
<g opacity="0.5">
<path fill-rule="evenodd" clip-rule="evenodd" d="M3779.83 438.308H3699.92L3723.32 448.587L3722.65 449.66L3696.84 438.308H3441.38L3461.51 448.587L3460.78 449.66L3438.64 438.308H3182.92L3199.7 448.643L3198.9 449.604L3180.44 438.308H2924.38L2937.96 448.7L2936.95 449.547L2922.24 438.308H2665.92L2676.15 448.756L2675.08 449.491L2664.04 438.308H2407.45L2414.4 448.813L2413.13 449.434L2405.78 438.308H2148.98L2152.66 448.982L2151.26 449.265L2147.51 438.308H1890.65L1890.85 449.095L1889.38 449.152L1889.18 438.308H1632.32L1628.97 449.265L1627.57 448.982L1630.85 438.308H1374.05L1367.1 449.378L1365.83 448.813L1372.45 438.308H1115.79L1105.15 449.491L1104.02 448.756L1113.98 438.308H857.587L843.276 449.547L842.273 448.7L855.447 438.308H599.388L581.332 449.604L580.53 448.643L596.981 438.308H341.189L319.455 449.66L318.72 448.587L338.447 438.308H82.9901L57.5782 449.66L56.9094 448.587L79.9808 438.308H0V437.065H82.6558L140.033 411.423H62.8612V410.237H142.775L200.153 384.595H125.789V383.353H202.895L260.272 357.711H188.65V356.525H263.014L320.391 330.883H251.578V329.64H323.133L380.511 303.999H314.44V302.812H383.253L440.63 277.114H377.368V275.928H443.372L500.75 250.286H440.296V249.1H503.491L560.869 223.402H503.157V222.216H563.611L620.988 196.574H566.085V195.331H623.73L681.108 169.689H628.946V168.503H683.849L741.227 142.862H691.874V141.619H743.969L801.346 115.977H754.735V114.791H804.088L861.466 89.1492H817.664V87.9067H864.208L921.585 62.2648H880.525V61.0787H974.014C977.96 61.0787 982.173 60.9658 986.653 60.7963C995.614 60.5704 1004.91 60.3445 1012.73 60.9658C1041.76 58.2547 1067.64 49.5568 1092.71 38.0914L1100.14 34.6462C1115.45 27.3038 1130.5 19.0012 1145.88 10.5857C1150.63 7.98767 1155.51 5.33311 1160.32 2.67856C1164.4 0.588806 1168.75 -1.0491 1172.49 0.814732C1172.72 0.927692 1172.92 1.02182 1173.1 1.09713L1174.43 1.60546C1181.86 4.48594 1190.02 7.98767 1199.85 12.3931C1205.4 14.8782 1210.95 17.4198 1216.36 19.9049C1219.98 21.5617 1223.59 23.2184 1227.2 24.8751C1280.76 48.992 1338.61 36.1147 1376.26 21.9382L1379.67 20.6391C1384.75 18.6624 1389.43 16.6291 1393.65 14.7653C1407.02 8.55248 1425.14 8.66543 1442.26 15.1041L1443.6 15.6125C1449.35 17.8152 1455.1 20.1308 1460.72 22.3335C1488.61 33.5166 1517.43 45.0949 1548.99 48.8791L1552.34 49.218C1563.3 50.2911 1574.67 51.4207 1584.77 51.6466C1601.69 52.0984 1619.08 52.042 1636.53 51.5336L1639.67 51.4207C1643.6 51.3077 1647.54 51.1759 1651.51 51.0253C1663.41 50.4605 1674.31 49.7828 1684.81 48.8791C1696.52 47.9189 1707.82 46.7893 1718.65 43.1182C1719.68 42.8169 1720.7 42.5345 1721.73 42.271L1723.87 41.6497C1758.44 32.0481 1789.4 26.3436 1818.36 24.2539C1839.76 22.6724 1856.08 22.616 1869.65 24.0844C1870.37 24.1597 1871.06 24.235 1871.73 24.3103L1873.2 24.5363C1887.04 26.3436 1901.08 29.8454 1914.66 33.1777C1944.42 40.5201 1975.11 48.1449 2005.61 38.8822C2016.37 35.7193 2026.47 30.3537 2036.23 24.8187L2037.71 23.9715C2038.91 23.2937 2040.11 22.616 2041.32 21.9382C2059.11 11.6589 2077.5 1.09712 2099.63 2.56559C2109.19 3.29983 2118.02 6.34976 2126.38 10.1339L2128.92 11.32C2133.2 13.3532 2137.28 15.556 2141.43 17.7022C2148.52 21.4299 2155.87 25.327 2163.43 28.151C2178.27 34.8721 2193.86 41.7626 2207.97 46.0551C2224.08 51.0253 2238.86 53.2845 2253.17 53.0021C2262.87 51.9855 2270.83 50.63 2277.58 48.992C2280.79 48.2013 2284.02 47.3918 2287.28 46.5634C2292.29 45.2644 2297.44 43.9653 2302.59 42.7228L2304 42.3839C2310.62 40.8589 2317.3 39.3905 2324.13 38.2609C2342.78 35.211 2360.97 36.4535 2378.23 41.9321C2388.46 44.8125 2397.95 47.2412 2407.18 49.4439C2411.93 50.2911 2417.01 51.1383 2422.1 51.9855L2424.44 52.3244C2427.04 52.7762 2429.65 53.1716 2432.13 53.5669C2436.94 54.3576 2441.56 55.0354 2445.1 55.6567C2466.83 57.6335 2489.37 59.0455 2513.91 60.0621C2525.55 60.514 2539.73 59.8927 2553.3 59.2149C2575.04 59.0455 2595.7 56.3344 2616.16 52.2679L2618.3 51.816C2631.61 49.105 2644.78 45.8856 2658.09 42.3839L2668.99 39.5034C2671.76 38.7504 2674.54 37.9973 2677.35 37.2442C2691.4 33.5166 2705.91 29.6195 2720.55 26.1742C2725.77 24.5363 2732.32 24.7057 2738.88 26.7955C2743.82 28.2639 2748.77 29.7513 2753.72 31.2574C2774.05 37.3572 2794.71 43.6265 2815.71 48.8226L2821.6 50.2911C2842.8 55.3178 2864.33 59.2714 2886.13 61.0222L2886 62.2083C2866 60.6269 2846.21 57.1816 2826.81 52.7197C2845.54 61.7 2864.6 70.6238 2883.72 79.2653L2903.32 87.8502C2907.86 87.8878 2912.12 87.9067 2916.09 87.9067H2950V89.1492H2916.09C2912.97 89.1492 2909.65 89.1304 2906.13 89.0927L2964.51 114.791H3013.86V115.977H2967.25L3025.56 141.619H3077.66V142.862H3028.3L3086.62 168.503H3141.52V169.689H3089.36L3147.67 195.331H3205.32V196.574H3150.42L3208.73 222.216H3269.18V223.402H3211.47L3269.78 249.1H3332.98V250.286H3272.53L3330.84 275.928H3396.84V277.114H3333.58L3391.9 302.812H3460.64V303.999H3394.64L3452.95 329.64H3524.51V330.883H3455.69L3514.01 356.525H3588.3V357.711H3516.75L3575.06 383.353H3652.17V384.595H3577.8L3636.12 410.237H3715.97V411.423H3638.86L3697.17 437.065H3779.83V438.308ZM3574.73 384.595H3336.59L3386.61 410.237H3633.04L3574.73 384.595ZM1712.3 82.4281C1707.88 81.2232 1703.56 79.9995 1699.33 78.7569C1691.3 76.4977 1682.47 79.1523 1673.38 82.3717C1641.95 93.3287 1609.58 98.9202 1578.75 98.9767C1569.79 109.877 1562.1 121.964 1555.88 134.898C1583.3 137.327 1609.71 130.436 1637.33 123.207C1651.44 119.535 1666.02 115.751 1680.8 113.266C1691.57 111.515 1702 111.628 1712.23 112.927C1712.23 109.614 1712.23 106.319 1712.23 103.043C1712.23 96.2657 1712.23 89.3187 1712.3 82.4281ZM1491.95 250.343L1475.83 275.985H1680.33L1688.16 250.343H1491.95ZM1688.49 249.1L1694.44 229.671C1695.02 227.675 1695.6 225.605 1696.18 223.458H1508.74L1492.69 249.1H1688.49ZM1475.03 277.171L1458.98 302.812H1672.11L1679.93 277.171H1475.03ZM1673.58 302.812H1886.77L1886.37 277.171H1681.4L1673.58 302.812ZM1886.84 222.272H2074.08L2065.32 196.574H1886.37L1886.84 222.272ZM2075.56 222.272H2262.74L2245.75 196.63H2066.86L2075.56 222.272ZM2264.34 222.272H2451.32L2426.04 196.63H2247.35L2264.34 222.272ZM2424.9 195.388L2399.63 169.746H2229.57L2246.55 195.388H2424.9ZM2227.96 169.746H2057.77L2066.46 195.388H2244.95L2227.96 169.746ZM2056.3 169.746H1885.9L1886.37 195.444H2064.99L2056.3 169.746ZM1885.9 250.286H1689.63L1681.8 275.928H1886.37L1885.9 250.286ZM1885.9 249.1L1885.43 223.458H1697.65C1697.05 225.717 1696.45 227.864 1695.78 229.953L1689.96 249.1H1885.9ZM1702.13 199.285C1702.36 198.381 1702.56 197.478 1702.74 196.574H1525.19C1523.11 200.302 1520.97 203.973 1518.77 207.531L1509.54 222.272H1696.52C1698.46 215.043 1700.33 207.079 1702.13 199.285ZM1532.88 179.461C1534.95 175.563 1536.89 171.836 1538.83 168.221C1492.35 165.905 1440.72 166.357 1378.6 169.577C1376.01 169.577 1373.41 169.595 1370.78 169.633C1368.5 172.08 1366.25 174.49 1364.02 176.862L1346.43 195.388H1524.32C1527.26 190.079 1530.07 184.713 1532.88 179.461V179.461ZM1345.3 196.574L1320.89 222.272H1507.93L1517.5 206.966C1519.57 203.634 1521.64 200.132 1523.65 196.574H1345.3ZM1319.75 223.458L1295.41 249.1H1491.08L1507.13 223.458H1319.75ZM1294.27 250.286L1269.93 275.985H1474.23L1490.35 250.286H1294.27ZM1268.73 277.171L1244.38 302.812H1457.38L1473.43 277.171H1268.73ZM1243.25 304.055L1218.91 329.697H1440.52L1456.57 304.055H1243.25ZM1442.13 329.697H1663.95L1671.77 304.055H1458.25L1442.13 329.697ZM1665.35 329.697H1887.24L1886.84 303.999H1673.18L1665.35 329.697ZM1887.31 249.157H2083.18L2074.49 223.515H1886.84L1887.31 249.157ZM2084.72 249.157H2280.52L2263.54 223.458H2075.96L2084.72 249.157ZM2282.2 249.157H2477.8L2452.59 223.515H2265.21L2282.2 249.157ZM2479.67 249.157H2675.08L2649.26 229.445L2649.2 229.332C2647.77 227.337 2646.32 225.397 2644.85 223.515H2454.46L2479.67 249.157ZM2643.85 222.329C2639.5 216.85 2634.89 211.823 2629.74 206.91C2623.79 201.431 2618.7 195.501 2614.22 189.345C2585.53 189.062 2558.25 190.7 2531.83 194.258H2531.77C2520.4 194.767 2511.04 195.501 2502.14 196.63H2502.08H2427.98L2453.19 222.329H2643.85ZM2613.35 188.102C2604.46 175.563 2597.91 161.895 2591.49 148.566C2589.55 144.556 2587.61 140.489 2585.6 136.423C2578.51 139.19 2571.49 142.127 2564.6 145.008C2537.18 156.417 2508.83 168.221 2477.27 169.802H2448.64H2401.56L2426.84 195.444H2502.08C2510.9 194.315 2520.33 193.524 2531.7 193.072C2557.92 189.514 2585 187.876 2613.35 188.102V188.102ZM2585 135.293C2581.12 127.556 2576.91 119.761 2572.03 112.362C2570.62 110.16 2569.02 108.239 2567.28 106.489C2529.63 121.851 2489.5 132.3 2444.56 138.513L2443.83 138.569C2432.66 139.642 2421.16 140.772 2407.65 142.918H2407.52H2375.15L2400.36 168.56H2477.27C2508.43 167.035 2536.65 155.287 2564 143.878C2570.89 140.998 2577.91 138.061 2585 135.293ZM2373.28 142.918H2211.91L2228.83 168.56H2398.49L2373.28 142.918ZM2210.31 142.918H2048.67L2057.43 168.616H2227.23L2210.31 142.918ZM2047.27 142.918H1885.5C1885.64 146.533 1885.72 150.129 1885.77 153.706L1886.04 168.56H2055.96L2047.27 142.918ZM1885.1 196.63H1704.34C1704.12 197.609 1703.89 198.588 1703.67 199.567C1701.87 207.249 1700.06 215.099 1698.12 222.272H1885.57L1885.1 196.63ZM1705.74 184.657C1707.82 176.411 1709.22 168.108 1710.23 159.749C1686.22 157.998 1662.61 161.217 1639.74 164.38C1625.43 166.357 1610.65 168.334 1595.8 169.181C1590.52 169.181 1585.04 169.351 1579.69 169.464C1574.41 169.633 1568.92 169.746 1563.64 169.746C1556.06 169.219 1548.35 168.748 1540.5 168.334C1538.43 172.062 1536.42 175.959 1534.28 179.969C1531.61 185.108 1528.86 190.305 1525.99 195.444H1703.14C1704.03 191.641 1704.9 188.045 1705.74 184.657V184.657ZM1541.37 163.872C1544.91 157.094 1547.92 150.035 1550.46 143.878C1551.58 141.205 1552.74 138.569 1553.94 135.971C1547.79 135.293 1541.5 134.22 1535.22 132.526C1530.2 131.509 1525.12 130.492 1520.04 129.419C1517.14 128.855 1514.24 128.271 1511.34 127.668C1504.25 126.2 1495.76 124.506 1487 122.924C1474.09 120.213 1461.19 120.213 1445.07 122.924C1431.3 125.183 1417.92 128.233 1404.95 131.17C1404.59 131.246 1404.21 131.321 1403.81 131.396C1403.63 131.697 1403.43 131.98 1403.21 132.243C1396.79 140.151 1390.37 147.775 1384.15 154.892C1380.14 159.523 1376.06 164.042 1372.05 168.447C1374.23 168.409 1376.44 168.39 1378.67 168.39C1441.06 165.171 1492.95 164.719 1539.63 167.091C1540.21 165.999 1540.79 164.926 1541.37 163.872V163.872ZM1401.74 131.904C1377.6 137.327 1354.52 142.297 1329.71 142.41C1310.05 142.918 1290.39 142.918 1273.01 142.918H1233.35L1200.72 168.56H1319.28C1335.4 168.56 1352.59 168.56 1370.17 168.447C1374.45 163.816 1378.73 159.015 1383.01 154.158C1389.1 147.154 1395.45 139.699 1401.74 131.904ZM1199.18 169.746L1166.61 195.444H1344.69L1363.02 176.128C1365.02 174.02 1367.05 171.873 1369.1 169.689C1351.85 169.746 1335.06 169.746 1319.28 169.746H1199.18ZM1165.01 196.63L1132.44 222.272H1319.15L1343.49 196.63H1165.01ZM1130.9 223.515L1098.27 249.157H1293.67L1318.01 223.515H1130.9ZM1096.73 250.343L1064.16 275.985H1268.19L1292.53 250.343H1096.73ZM1062.62 277.227L1029.99 302.869H1242.71L1267.05 277.227H1062.62ZM1028.45 304.055L995.815 329.697H1217.23L1241.58 304.055H1028.45ZM994.277 330.939L961.642 356.581H1191.69L1216.03 330.939H994.277ZM1193.56 356.581H1423.81L1439.92 330.939H1217.9L1193.56 356.581ZM1425.41 356.581H1655.86L1663.68 330.939H1441.53L1425.41 356.581ZM1657.33 356.581H1887.84L1887.44 330.939H1665.15L1657.33 356.581ZM1887.91 275.985H2092.48L2083.71 250.343H1887.44L1887.91 275.985ZM2093.95 275.985H2298.45L2281.46 250.343H2085.25L2093.95 275.985ZM2300.05 275.985H2504.35L2479.07 250.286H2283.06L2300.05 275.985ZM2506.16 275.985H2710.19L2676.68 250.343H2480.94L2506.16 275.985ZM2507.36 277.227L2532.57 302.869H2745.3L2711.79 277.227H2507.36ZM2533.77 304.055L2558.99 329.697H2780.34L2746.83 304.055H2533.77ZM2560.19 330.939L2585.47 356.581H2815.45L2781.94 330.939H2560.19ZM2817.59 356.581H3047.3L3005.5 330.939H2784.08L2817.59 356.581ZM3003.56 329.697L2961.76 304.055H2748.97L2782.48 329.697H3003.56ZM2959.83 302.869L2918.03 277.171H2713.93L2747.44 302.869H2959.83ZM2916.02 275.985L2874.29 250.343H2678.82L2712.33 275.985H2916.02ZM2872.29 249.157L2830.49 223.458H2646.52C2647.82 225.115 2649.09 226.828 2650.33 228.598L2677.15 249.157H2872.29ZM2828.55 222.272L2786.76 196.63H2718.88H2718.81C2710.52 195.501 2701.76 194.767 2692 194.371C2665.51 191.321 2640.24 189.627 2615.96 189.345C2620.31 195.218 2625.19 200.866 2630.81 206.063C2636.29 211.259 2641.11 216.511 2645.65 222.272H2828.55ZM2784.75 195.388L2754.79 176.975C2750.85 174.208 2747.17 171.666 2743.62 169.238C2742.55 169.2 2741.46 169.162 2740.35 169.125C2714.73 167.543 2692.13 157.885 2670.33 148.566C2664.31 146.024 2658.09 143.37 2651.94 140.941C2640.7 136.479 2631.41 133.486 2622.52 131.34C2613.69 129.08 2604.46 129.476 2595.77 132.526C2592.82 133.618 2589.86 134.747 2586.87 135.915C2588.88 139.981 2590.88 144.048 2592.82 148.058C2599.31 161.613 2605.93 175.45 2615.03 188.102C2639.63 188.384 2665.25 190.079 2692.13 193.129C2701.83 193.524 2710.59 194.258 2718.95 195.388H2784.75ZM2741.75 167.939C2737.74 165.228 2734.06 162.63 2730.52 160.257C2727.77 158.337 2725.1 156.53 2722.42 154.722C2716.81 150.543 2711.66 145.573 2706.71 140.828C2705.24 139.397 2703.77 137.985 2702.3 136.592C2692.13 127.217 2684.31 114.961 2676.68 103.1C2676.19 102.347 2675.7 101.575 2675.21 100.784C2668.19 96.774 2661.03 92.7639 2653.75 88.9798C2630.07 76.2718 2604.86 87.5678 2591.89 95.362L2591.82 95.4185C2588.21 96.887 2583.13 99.2027 2577.31 101.857C2574.5 103.156 2571.49 104.512 2568.55 105.867C2570.29 107.618 2571.82 109.595 2573.23 111.741C2578.11 119.197 2582.32 126.991 2586.27 134.785C2589.26 133.618 2592.22 132.507 2595.16 131.453C2604.19 128.233 2613.75 127.838 2622.85 130.21C2631.81 132.3 2641.24 135.35 2652.47 139.812C2658.69 142.297 2664.91 144.951 2670.93 147.493C2692.67 156.756 2715.07 166.357 2740.41 167.939C2740.86 167.939 2741.31 167.939 2741.75 167.939V167.939ZM2673.74 98.5249C2664.91 84.8568 2655.55 71.471 2642.18 62.6037C2622.78 64.524 2603.52 70.285 2585.73 79.8301L2585.6 79.8865C2582.32 80.9596 2578.91 82.2022 2575.24 83.5013C2567.81 86.0993 2560.06 88.8104 2553.7 90.7307C2550.8 91.5967 2547.91 92.4627 2545.01 93.3287C2553.7 95.7009 2561.53 99.2027 2567.55 104.964C2570.62 103.552 2573.7 102.14 2576.64 100.841C2582.46 98.1295 2587.47 95.8138 2591.15 94.3454C2604.39 86.3817 2630.14 74.9163 2654.55 87.9631C2661.03 91.3519 2667.45 94.9102 2673.74 98.5249V98.5249ZM2542.73 94.0065C2509.9 103.495 2474.72 111.741 2437.68 112.193C2429.65 112.758 2420.49 113.379 2404.11 116.034H2403.97H2348.67L2373.88 141.676H2407.38C2420.96 139.529 2432.46 138.456 2443.63 137.383L2444.3 137.27C2488.97 131.114 2528.89 120.721 2566.21 105.472C2559.99 99.7109 2551.76 96.2657 2542.73 94.0065V94.0065ZM2346.8 116.034H2194.12C2196.98 120.439 2199.83 124.788 2202.68 129.08L2211.04 141.676H2372.01L2346.8 116.034ZM2192.58 116.034H2158.75C2124.98 115.186 2090.2 115.582 2056.63 115.921C2051.95 115.958 2047.29 115.996 2042.65 116.034H2039.85C2041.18 120.27 2042.59 124.619 2044.06 129.193L2044.99 132.13L2048.2 141.676H2209.44L2201.48 129.702C2198.49 125.221 2195.53 120.665 2192.58 116.034V116.034ZM2038.37 116.034H1981C1970.3 115.582 1959 115.13 1947.96 115.13C1941.54 114.678 1935.19 114.226 1928.9 113.774C1917.67 112.984 1906.03 112.137 1894.66 111.459C1891.12 111.233 1887.37 110.95 1883.5 110.612C1884.36 121.399 1884.97 131.735 1885.37 141.676H2046.73L2043.59 132.469L2042.65 129.476C2041.18 124.845 2039.78 120.383 2038.37 116.034V116.034ZM1884.5 169.746H1863.57C1844.64 169.746 1824.31 169.746 1803.92 169.351C1785.39 169.068 1767 166.583 1749.21 164.211C1736.91 162.517 1724.27 160.822 1711.56 159.862C1710.56 168.221 1709.09 176.637 1707.02 184.883C1706.21 188.215 1705.34 191.717 1704.47 195.444H1884.97L1884.5 169.746ZM1712.23 114.113C1702.07 112.871 1691.7 112.645 1681.07 114.396C1666.36 116.881 1651.78 120.665 1637.73 124.336C1609.78 131.622 1583.1 138.626 1555.28 136.028C1554.03 138.739 1552.83 141.468 1551.67 144.217C1549.13 150.373 1546.12 157.49 1542.57 164.324C1542.04 165.228 1541.53 166.15 1541.04 167.091C1548.66 167.506 1556.17 167.976 1563.57 168.503C1568.79 168.503 1574.27 168.334 1579.55 168.221C1584.84 168.052 1590.32 167.939 1595.6 167.939C1610.32 167.091 1625.1 165.058 1639.41 163.138C1662.34 159.975 1686.08 156.756 1710.23 158.506C1711.9 143.709 1712.23 128.798 1712.23 114.113V114.113ZM1577.01 98.9202C1560.76 98.8638 1544.91 97.2258 1529.93 94.0065C1525.59 92.7639 1520.77 91.6343 1515.69 90.4483C1511.28 89.4316 1506.73 88.3585 1501.85 87.1159L1501.65 87.003L1499.64 85.9863C1478.78 75.3681 1455.7 63.6768 1432.17 68.1952C1426.75 89.714 1419.06 110.894 1404.88 129.871C1417.72 126.934 1430.96 123.941 1444.67 121.682C1460.99 118.914 1474.09 118.914 1487.2 121.682C1495.96 123.32 1504.46 125.014 1511.54 126.426C1514.44 127.028 1517.34 127.631 1520.24 128.233C1525.32 129.25 1530.38 130.267 1535.42 131.283C1541.84 132.978 1548.12 134.107 1554.41 134.728C1560.5 121.851 1568.12 109.877 1577.01 98.9202V98.9202ZM1430.63 68.5341C1424.54 69.8896 1418.46 72.3182 1412.3 76.2153C1387.89 92.3686 1360.21 110.725 1325.5 113.04C1319.88 113.323 1314.2 113.718 1308.11 114.057C1303.7 114.339 1299.22 114.622 1294.74 114.904C1286.85 115.356 1276.75 115.921 1267.39 115.977L1234.75 141.676H1272.87C1290.19 141.676 1309.92 141.676 1329.58 141.111C1354.73 141.054 1378.13 135.858 1402.81 130.323C1417.32 111.402 1425.14 90.1659 1430.63 68.5341V68.5341ZM1265.25 115.977C1265.07 115.977 1264.89 115.977 1264.71 115.977C1242.31 115.13 1221.31 111.515 1199.04 107.731C1196.73 107.355 1194.38 106.959 1192.02 106.545C1164.6 102.027 1138.26 106.489 1112.78 110.95C1109.1 114.509 1105.15 117.954 1100.94 121.173C1098.2 123.094 1095.32 125.353 1092.31 127.725C1088.03 131.001 1083.69 134.446 1079.74 136.875L1072.18 141.676H1232.68L1265.25 115.977ZM1070.18 142.805L1029.32 168.447H1198.44L1231.08 142.805H1070.18ZM1027.38 169.689L986.519 195.331H1164.34L1196.9 169.689H1027.38ZM984.58 196.517L943.72 222.159H1130.16L1162.8 196.517H984.58ZM941.781 223.402L900.854 249.044H1095.99L1128.63 223.402H941.781ZM898.982 250.23L858.122 275.928H1061.89L1094.45 250.23H898.982ZM856.183 277.114L815.323 302.756H1027.78L1060.35 277.114H856.183ZM813.384 303.999L772.524 329.64H993.608L1026.24 303.999H813.384ZM770.585 330.827L729.658 356.468H959.436L992.003 330.827H770.585ZM727.785 357.711L686.926 383.353H925.33L957.964 357.711H727.785ZM927.403 383.353H1166.08L1190.42 357.711H959.971L927.403 383.353ZM1167.95 383.353H1406.89L1422.94 357.711H1192.29L1167.95 383.353ZM1408.49 383.353H1647.56L1655.39 357.654H1424.61L1408.49 383.353ZM1649.04 383.353H1888.24L1887.77 357.711H1656.86L1649.04 383.353ZM1888.24 302.812H2101.5L2092.74 277.114H1887.77L1888.24 302.812ZM2102.97 302.812H2316.1L2299.11 277.171H2094.28L2102.97 302.812ZM2317.71 302.812H2530.63L2505.42 277.171H2300.72L2317.71 302.812ZM2318.51 303.999L2335.49 329.697H2557.11L2531.83 303.999H2318.51ZM2336.3 330.883L2353.28 356.525H2583.53L2558.25 330.883H2336.3ZM2354.08 357.767L2371.07 383.409H2610.01L2584.73 357.767H2354.08ZM2611.82 383.409H2850.49L2816.98 357.767H2586.6L2611.82 383.409ZM2852.56 383.409H3090.96L3049.17 357.711H2819.06L2852.56 383.409ZM3093.37 383.409H3331.44L3281.35 357.767H3051.58L3093.37 383.409ZM3279.01 356.581L3228.99 330.939H3007.84L3049.64 356.581H3279.01ZM3226.65 329.697L3176.56 304.055H2964.11L3005.9 329.697H3226.65ZM3174.22 302.869L3124.2 277.171H2920.37L2962.17 302.869H3174.22ZM3121.79 275.985L3071.77 250.343H2876.57L2918.36 275.985H3121.79ZM3069.36 249.1L3019.34 223.458H2832.83L2874.63 249.1H3069.36ZM3016.94 222.272L2966.91 196.63H2789.03L2830.83 222.272H3016.94ZM2964.51 195.388L2914.49 169.746H2764.35C2762.21 169.708 2760.07 169.652 2757.93 169.577C2753.99 169.52 2749.91 169.407 2745.83 169.294C2748.91 171.403 2752.14 173.643 2755.53 176.015L2787.02 195.388H2964.51ZM2912.14 168.56L2875.56 149.809C2871.15 147.549 2866.67 145.234 2862.12 142.918H2794.11C2793.09 142.918 2792.06 142.918 2791.04 142.918C2748.77 142.918 2715.94 124.11 2681.16 104.229C2680 103.589 2678.85 102.93 2677.69 102.253C2677.73 102.328 2677.78 102.403 2677.82 102.478C2685.38 114.339 2693.2 126.539 2703.23 135.802C2704.7 137.195 2706.17 138.588 2707.65 139.981C2712.59 144.782 2717.74 149.696 2723.23 153.762C2725.9 155.57 2728.58 157.433 2731.32 159.297C2735.26 162.008 2739.48 164.889 2744.02 168.052C2748.71 168.165 2753.45 168.277 2758 168.39C2760.14 168.428 2762.26 168.485 2764.35 168.56H2912.14ZM2859.78 141.676C2852.56 137.948 2845.34 134.164 2838.18 130.38C2827.42 124.845 2817.52 118.632 2808.09 112.08C2775.05 100.897 2743.22 86.89 2712.46 73.2784C2691.13 63.9592 2667.59 60.401 2644.18 62.3778C2657.76 71.8664 2667.25 85.9299 2676.28 99.9369C2678.2 101.066 2680.12 102.177 2682.03 103.269C2717.41 123.489 2750.85 142.636 2794.11 141.676H2859.78ZM2804.55 109.538C2790.43 99.4286 2777.33 88.302 2763.82 76.8366C2752.92 67.6869 2741.75 58.1983 2729.91 49.218C2729.11 48.9921 2728.31 48.7661 2727.51 48.5402C2694.81 39.6729 2662.37 46.281 2630.74 55.2613C2635.02 56.8992 2638.9 58.9325 2642.51 61.3046C2666.72 59.0454 2691.06 62.6037 2713.06 72.2053C2742.55 85.2521 2772.98 98.6378 2804.55 109.538V109.538ZM2628.73 55.8826C2622.92 57.5205 2617.1 59.2714 2611.35 61.0222C2591.82 66.8961 2571.69 72.996 2551.56 75.9894C2541.8 77.5144 2532.9 78.8699 2524.48 80.1125C2512.84 81.8069 2501.94 83.2188 2491.44 84.4614C2499.33 86.2687 2507.96 87.3983 2516.32 88.415C2525.21 89.5446 2534.24 90.6742 2542.6 92.7075C2546.12 91.6908 2549.62 90.6554 2553.1 89.6011C2559.45 87.6808 2567.14 84.9697 2574.57 82.3717C2578.24 81.0726 2581.66 79.8865 2584.93 78.7569C2602.39 69.3813 2621.31 63.6203 2640.44 61.5306C2636.83 59.2714 2632.95 57.3511 2628.73 55.8826V55.8826ZM2487.97 84.8567C2472.25 86.6641 2457.47 87.9632 2442.96 88.8668H2442.89L2442.76 88.8103C2439.95 88.1891 2432.59 88.0761 2425.51 88.0196C2422.03 87.9632 2418.48 87.9067 2415.27 87.7937C2408.52 87.4548 2401.77 87.003 2395.15 86.6076C2371.81 85.2521 2347.93 83.7836 2323.86 83.8966C2329.81 93.837 2336.63 103.382 2344.79 112.25L2347.33 114.848H2403.84C2420.22 112.193 2429.38 111.515 2437.48 110.95C2473.65 110.499 2508.03 102.648 2540.19 93.4417C2532.5 91.6908 2524.21 90.6177 2516.12 89.6011C2506.62 88.415 2496.79 87.1724 2487.97 84.8567V84.8567ZM2322.25 83.8966C2308.74 83.9531 2295.24 84.5179 2281.66 85.8169C2278.27 85.9675 2274.86 86.137 2271.43 86.3252C2265.54 86.6076 2259.39 86.89 2253.31 87.1724C2241.94 87.7937 2232.58 88.415 2223.81 89.1492L2223.75 89.2057L2223.68 89.1492C2206.43 88.1326 2190.58 83.8401 2177.34 79.7736C2174.97 79.0205 2172.61 78.2674 2170.25 77.5144C2172.12 80.5266 2173.93 83.4824 2175.67 86.3817C2181.62 96.3222 2187.44 105.754 2193.25 114.848H2345.52L2343.72 112.984C2335.29 103.947 2328.34 94.1194 2322.25 83.8966V83.8966ZM2168.24 76.8366C2165.48 75.9329 2162.74 75.0481 2160.02 74.1821C2150.99 71.1886 2141.56 68.0822 2132.13 65.4842C2120.16 61.9259 2102.97 58.9325 2089.06 64.8064C2070.87 72.4312 2052.42 77.9097 2033.76 81.355C2034.03 91.6343 2035.36 101.914 2038.51 112.08C2038.78 112.984 2039.07 113.906 2039.38 114.848H2042.52C2047.16 114.772 2051.82 114.716 2056.5 114.678C2090.07 114.339 2124.84 113.944 2158.68 114.848H2191.65C2185.9 105.924 2180.21 96.661 2174.4 86.9465C2172.43 83.6707 2170.38 80.3007 2168.24 76.8366V76.8366ZM2032.29 81.5809C2017.38 84.2355 2002.4 85.591 1987.35 85.591C1954.78 85.591 1922.08 79.3782 1890.18 66.9526C1886.17 66.1054 1882.16 65.3147 1878.41 64.6934C1878.55 65.5971 1878.66 66.5008 1878.75 67.4045C1879.06 70.3038 1879.39 73.2031 1879.75 76.1024C1881.15 87.6807 1882.36 98.7508 1883.23 109.425C1887.17 109.708 1891.05 109.99 1894.6 110.216C1906.03 110.894 1917.67 111.741 1928.9 112.532C1935.19 113.021 1941.52 113.492 1947.89 113.944C1947.94 113.944 1947.96 113.944 1947.96 113.944C1958.93 113.944 1970.23 114.396 1980.93 114.848H2037.91C2037.64 114.019 2037.37 113.191 2037.1 112.362C2033.96 102.196 2032.62 91.9167 2032.29 81.5809V81.5809ZM1878.35 76.2153C1877.99 73.316 1877.65 70.4167 1877.34 67.5174C1877.21 66.5008 1877.08 65.4653 1876.94 64.411C1873.6 63.8462 1870.52 63.3944 1867.98 63.0555C1856.01 61.7 1846.38 61.3046 1836.88 61.8694C1813.14 63.0555 1789 62.4907 1765.73 61.9824C1748.81 61.6435 1731.56 61.3047 1714.3 61.5306C1713.97 67.235 1713.77 73.3913 1713.64 80.3384C1713.64 80.7525 1713.64 81.1667 1713.64 81.5809C1758.51 94.063 1810.47 106.093 1865.37 107.901C1868.76 108.202 1872.1 108.484 1875.4 108.748C1877.54 108.936 1879.66 109.105 1881.76 109.256C1880.89 98.6943 1879.75 87.7372 1878.35 76.2153V76.2153ZM1713.57 82.8235C1713.5 89.6011 1713.5 96.3786 1713.57 103.043C1713.57 106.394 1713.57 109.746 1713.57 113.097C1727.81 115.017 1741.66 119.027 1755.16 122.924C1772.02 127.838 1789.47 132.865 1807.39 133.881C1812.21 134.333 1816.96 134.785 1821.97 135.237C1839.49 136.762 1857.61 138.4 1878.68 141.676H1883.76C1883.43 131.679 1882.76 121.286 1881.89 110.499C1879.71 110.31 1877.5 110.122 1875.27 109.934C1871.93 109.651 1868.58 109.369 1865.24 109.143C1810.4 107.279 1758.44 95.362 1713.57 82.8235V82.8235ZM1711.56 158.619C1724.27 159.636 1736.97 161.33 1749.28 162.968C1767 165.397 1785.39 167.826 1803.85 168.108C1824.18 168.503 1844.51 168.56 1863.43 168.56H1884.36L1884.1 153.706C1884.05 150.129 1883.96 146.533 1883.83 142.918H1878.55L1878.48 142.862C1857.41 139.642 1839.29 138.004 1821.84 136.423C1816.82 135.971 1812.07 135.519 1807.26 135.067C1789.14 134.051 1771.68 128.968 1754.76 124.11C1741.32 120.213 1727.61 116.26 1713.57 114.339C1713.5 129.024 1713.23 143.878 1711.56 158.619V158.619ZM1712.9 61.587C1704.81 61.7 1696.78 61.9824 1688.76 62.4907C1675.05 63.3379 1661.01 64.5805 1647.36 65.823C1635.19 66.8961 1622.75 68.0258 1610.32 68.873C1599.01 77.1755 1588.72 86.9465 1579.62 97.7906C1609.92 97.5647 1641.75 92.0297 1672.71 81.2421C1682 77.9662 1691.1 75.1987 1699.66 77.6273C1703.76 78.7946 1707.93 79.9807 1712.16 81.1856C1712.16 80.8843 1712.16 80.6019 1712.16 80.3384C1712.3 73.4478 1712.57 67.235 1712.9 61.587ZM1607.98 69.0424C1595.2 69.8331 1582.43 70.3979 1569.72 70.3414C1560.7 70.2849 1550.26 69.5507 1538.69 68.0822C1516.96 66.5008 1498.57 56.8992 1480.72 47.6365C1469.41 41.7062 1457.64 35.6063 1445.14 31.5963C1443.58 31.1444 1441.95 30.7867 1440.26 30.5231C1439.81 32.82 1439.34 35.098 1438.85 37.3572C1436.85 47.1847 1434.84 57.0687 1432.43 66.8962C1456.17 62.6037 1479.31 74.3515 1500.24 84.9697L1502.25 85.9863C1507.06 87.2289 1511.61 88.302 1515.96 89.3187C1521.11 90.5612 1525.92 91.6908 1530.2 92.8769C1545.38 96.1527 1561.36 97.7342 1577.88 97.7906C1586.78 87.003 1596.87 77.3449 1607.98 69.0424V69.0424ZM1438.85 30.2972C1429.56 29.0547 1419.06 30.7491 1408.49 35.211C1394.05 40.5766 1380.34 47.7495 1367.1 54.6965C1350.45 63.3944 1333.39 72.3182 1314.67 77.7968C1305.37 85.6475 1295.94 93.3852 1286.31 101.066L1268.86 114.791C1277.69 114.678 1287.05 114.17 1294.54 113.718C1298.95 113.492 1303.43 113.21 1307.91 112.927C1314 112.532 1319.68 112.137 1325.3 111.854C1359.54 109.538 1387.03 91.352 1411.3 75.3117C1417.85 71.1322 1424.41 68.5905 1430.89 67.235C1433.37 57.1816 1435.44 47.1282 1437.45 37.1313C1437.89 34.8721 1438.36 32.5941 1438.85 30.2972V30.2972ZM1311.59 78.644C1303.83 80.7337 1295.81 82.2587 1287.38 82.88H1287.32L1287.18 82.8235C1277.75 80.9597 1268.66 78.3616 1257.83 75.1422C1241.84 68.9859 1226.73 60.9093 1212.15 53.0586C1201.65 47.3541 1190.75 41.5367 1179.58 36.397C1173.1 33.686 1166.48 34.9286 1160.06 37.3572C1149.02 63.3379 1135.58 88.528 1114.25 109.482C1139.26 105.077 1165.14 100.897 1192.22 105.415C1194.54 105.792 1196.86 106.187 1199.18 106.601C1221.38 110.386 1242.38 113.944 1264.65 114.848C1265.32 114.848 1266.01 114.848 1266.72 114.848L1285.31 100.163C1294.2 93.1028 1302.97 85.8734 1311.59 78.644V78.644ZM1158.25 38.0914C1157.23 38.5056 1156.2 38.9575 1155.17 39.447C1148.02 43.4006 1140.86 47.693 1133.91 51.816C1103.21 70.172 1074.12 87.4548 1036.88 88.302C1033.13 88.3585 1029.05 88.528 1025.17 88.7539C1020.96 88.9798 1016.61 89.1492 1012.67 89.1492H1010.06L960.907 114.848H1028.92C1033.13 114.678 1037.54 114.565 1041.76 114.396C1056.87 113.887 1072.39 113.323 1087.3 114C1095.26 112.814 1103.28 111.402 1111.04 110.047C1111.31 110.009 1111.6 109.971 1111.91 109.934C1133.51 89.1492 1147.08 64.0722 1158.25 38.0914ZM958.633 116.034L909.481 141.676H1069.64L1078.74 135.971C1082.68 133.542 1087.03 130.154 1091.24 126.878C1094.25 124.449 1097.2 122.246 1099.87 120.326C1103.57 117.464 1107.05 114.49 1110.3 111.402C1102.81 112.758 1095.12 114.113 1087.5 115.186H1087.43H1087.36C1072.45 114.509 1056.87 115.073 1041.82 115.582C1037.61 115.751 1033.2 115.921 1028.92 116.034H958.633ZM907.207 142.918L858.055 168.56H1026.91L1067.77 142.918H907.207ZM855.715 169.746L806.563 195.388H984.112L1024.97 169.746H855.715ZM804.289 196.63L755.137 222.272H941.246L982.173 196.63H804.289ZM752.796 223.458L703.644 249.1H898.447L939.373 223.458H752.796ZM701.303 250.343L652.151 275.985H855.648L896.508 250.343H701.303ZM649.811 277.171L600.726 302.869H812.849L853.708 277.171H649.811ZM598.318 304.055L549.166 329.697H769.983L810.842 304.055H598.318ZM546.892 330.939L497.74 356.581H727.117L768.043 330.939H546.892ZM495.4 357.767L446.248 383.409H684.384L725.244 357.767H495.4ZM443.907 384.652L394.755 410.294H641.518L682.378 384.652H443.907ZM643.926 410.294H890.957L923.591 384.652H684.786L643.926 410.294ZM893.097 410.294H1140.46L1164.8 384.595H925.731L893.097 410.294ZM1142.27 410.294H1389.83L1405.95 384.652H1166.61L1142.27 410.294ZM1391.44 410.294H1639.21L1647.03 384.652H1407.56L1391.44 410.294ZM1640.68 410.294H1888.51L1888.04 384.652H1648.5L1640.68 410.294ZM1888.51 329.697H2110.4L2101.7 304.055H1888.11L1888.51 329.697ZM2111.87 329.697H2333.62L2316.64 304.055H2103.11L2111.87 329.697ZM2112.34 330.883L2121.03 356.581H2351.48L2334.49 330.883H2112.34ZM2121.43 357.767L2130.12 383.409H2369.26L2352.28 357.767H2121.43ZM2130.53 384.652L2139.22 410.294H2386.99L2370 384.652H2130.53ZM2388.66 410.294H2636.16L2610.95 384.652H2371.67L2388.66 410.294ZM2638.03 410.294H2885.33L2851.82 384.595H2612.82L2638.03 410.294ZM2887.47 410.294H3134.5L3092.7 384.652H2853.96L2887.47 410.294ZM3136.91 410.294H3383.6L3333.58 384.652H3095.11L3136.91 410.294ZM3513.41 357.767H3283.96L3333.98 383.409H3571.72L3513.41 357.767ZM3452.35 330.939H3231.53L3281.55 356.581H3510.66L3452.35 330.939ZM3391.29 304.112H3179.1L3229.19 329.753H3449.61L3391.29 304.112ZM3330.24 277.227H3126.74L3176.76 302.869H3388.55L3330.24 277.227ZM3269.18 250.399H3074.31L3124.33 276.041H3327.5L3269.18 250.399ZM3208.13 223.515H3021.88L3071.97 249.157H3266.37L3208.13 223.515ZM3147.07 196.687H2969.59L3019.61 222.329H3205.39L3147.07 196.687ZM3086.02 169.859H2917.16L2967.18 195.501H3144.33L3086.02 169.859ZM3024.96 142.974H2864.8C2868.63 144.97 2872.44 146.928 2876.23 148.848L2914.82 168.616H3083.27L3024.96 142.974ZM2963.91 116.147H2870.08H2870.01C2849.55 113.944 2829.42 113.097 2810.7 112.475C2819.52 118.575 2828.75 124.28 2838.78 129.419C2846.61 133.599 2854.57 137.722 2862.46 141.788H3022.22L2963.91 116.147ZM2902.72 89.2057C2894.49 89.1492 2885.19 88.9798 2874.7 88.5279C2839.19 86.9465 2807.09 75.5376 2776.06 64.524C2762.15 59.5538 2747.77 54.4706 2733.19 50.2346C2744.16 58.7066 2754.59 67.5174 2764.69 76.1024C2779.27 88.4715 2793.38 100.389 2808.69 111.12C2808.78 111.158 2808.89 111.195 2809.03 111.233C2828.29 111.798 2849.02 112.701 2870.15 114.904H2961.16L2902.72 89.2057ZM2678.89 38.2044C2695.88 36.1146 2713.66 35.8887 2728.11 46.394C2728.91 46.9964 2729.71 47.6177 2730.52 48.2578C2746.23 52.6068 2761.68 58.0853 2776.59 63.3944C2807.49 74.408 2839.45 85.7604 2874.7 87.3419C2884.06 87.7372 2892.35 87.9067 2899.91 88.0196L2882.79 80.4513C2861.92 71.0757 2841.19 61.3046 2820.8 51.5336C2797.79 46.0551 2775.19 39.221 2752.99 32.5564C2748.04 31.0503 2743.09 29.563 2738.14 28.0945C2731.92 26.1177 2725.7 25.8918 2720.75 27.4732C2706.51 30.8055 2692.46 34.5897 2678.89 38.2044V38.2044ZM2621.18 52.6068C2623.81 53.1716 2626.3 53.8493 2628.67 54.64C2660.77 45.4338 2693.74 38.4868 2727.17 47.2976C2710.32 35.0415 2689.46 37.6961 2669.06 40.859C2652.94 45.1514 2637.16 49.2745 2621.18 52.6068ZM2425.77 54.0188C2426.58 54.7718 2427.38 55.5249 2428.18 56.278C2444.3 71.471 2467.44 78.7004 2487.97 83.7272C2499.4 82.4281 2511.3 80.8467 2524.08 79.0393C2532.57 77.7968 2541.4 76.4413 2551.16 74.9163C2571.16 71.9229 2591.29 65.8795 2610.75 60.0056C2616.03 58.4242 2621.24 56.7863 2626.59 55.2613C2623.92 54.433 2621.09 53.7552 2618.1 53.228C2596.97 57.5205 2575.57 60.401 2553.03 60.5704C2539.53 61.2482 2525.28 61.8694 2513.58 61.4176C2489.04 60.4575 2466.43 58.989 2444.63 57.0122C2441.02 56.3909 2436.47 55.6567 2431.59 54.9224C2429.72 54.6212 2427.78 54.32 2425.77 54.0188V54.0188ZM2304.2 43.683C2309.75 56.9557 2315.7 70.172 2323.06 82.767C2347.33 82.654 2371.47 84.1225 2395.15 85.5345C2401.7 85.9299 2408.52 86.3252 2415.21 86.7206C2418.35 86.7771 2421.96 86.8336 2425.44 86.89C2432.86 87.003 2439.82 87.116 2442.89 87.7372C2456.33 86.89 2469.98 85.704 2484.49 84.1225C2464.56 79.0393 2442.69 71.7534 2427.11 57.0687C2425.86 55.9391 2424.64 54.7906 2423.43 53.6234C2417.75 52.7197 2411.93 51.7596 2406.58 50.7429C2397.28 48.5967 2387.79 46.1116 2377.49 43.2311C2360.5 37.809 2342.58 36.623 2324.19 39.6164C2317.37 40.746 2310.75 42.158 2304.2 43.683V43.683ZM2130.26 13.6357C2137.75 24.1409 2143.63 33.2342 2147.91 41.0849C2152.79 49.9522 2159.01 59.8362 2164.97 69.3248C2166.37 71.584 2167.77 73.7867 2169.11 75.9894C2171.99 76.8931 2174.86 77.8533 2177.74 78.7005C2190.85 82.767 2206.56 87.0595 2223.61 88.0761C2232.37 87.3419 2241.74 86.7206 2253.11 86.0993C2259.19 85.7604 2265.34 85.478 2271.23 85.1956C2274.66 85.045 2278.07 84.8944 2281.46 84.7438C2294.77 83.4447 2308.14 82.8799 2321.45 82.767C2314.16 70.2849 2308.28 57.1816 2302.86 44.0218C2297.64 45.2644 2292.49 46.5634 2287.41 47.8624C2284.16 48.6908 2280.92 49.5004 2277.71 50.2911C2270.89 51.9855 2262.8 53.341 2253.11 54.3576H2253.04C2238.46 54.64 2223.48 52.3809 2207.16 47.3541C2193.05 43.0052 2177.34 36.1146 2162.56 29.3935C2154.93 26.5695 2147.51 22.6724 2140.36 18.8883C2137.01 17.0809 2133.67 15.3301 2130.26 13.6357V13.6357ZM2035.77 42.6098C2034.56 54.9789 2033.29 67.5739 2033.56 80.2254C2052.02 76.7801 2070.34 71.3581 2088.26 63.8462C2102.64 57.8029 2120.23 60.7963 2132.47 64.411C2141.96 67.0091 2151.32 70.1155 2160.42 73.1654C2162.65 73.8808 2164.88 74.5963 2167.11 75.3117C2165.99 73.542 2164.85 71.7346 2163.7 69.8896C2157.74 60.3445 2151.52 50.517 2146.64 41.5932C2142.1 33.2907 2135.81 23.6326 2127.65 12.3931C2118.76 8.15711 2109.39 4.71183 2099.3 3.97759C2077.63 2.50911 2060.24 12.5061 2041.85 23.0678C2040.34 23.9338 2038.82 24.7998 2037.3 25.6659C2036.9 31.3703 2036.37 37.0183 2035.77 42.6098V42.6098ZM1873.06 25.9483C1873.24 27.3038 1873.4 28.6593 1873.53 30.0148C1873.84 32.4246 1874.13 34.8344 1874.4 37.2442C1876.01 45.8292 1877.14 54.753 1878.15 63.5074C1882.02 64.1851 1886.24 65.0323 1890.45 65.8795L1890.58 65.936C1937.06 84.0096 1985.14 88.8668 2032.15 80.4513C2031.89 67.7434 2033.16 54.9789 2034.36 42.4969C2034.9 37.2442 2035.43 31.8787 2035.83 26.5131C2026.34 31.9351 2016.44 37.0748 2005.81 40.1812C1974.91 49.5569 1943.95 41.8756 1913.99 34.4767C1900.61 31.2009 1886.77 27.7556 1873.06 25.9483V25.9483ZM1714.3 59.6102C1714.3 59.8738 1714.3 60.1562 1714.3 60.4574C1731.49 60.175 1748.74 60.514 1765.6 60.9093C1788.94 61.4176 1813.01 61.9259 1836.68 60.7398C1846.25 60.2315 1855.94 60.5704 1868.05 61.9824C1870.52 62.2648 1873.46 62.7166 1876.67 63.2814C1875.67 54.64 1874.53 45.8292 1873 37.4137C1872.73 34.985 1872.39 32.5564 1872.13 30.1278C1871.95 28.697 1871.77 27.2285 1871.59 25.7223C1870.79 25.6094 1870.01 25.5152 1869.25 25.4399C1855.74 23.9715 1839.56 24.028 1818.23 25.6094C1788.94 27.7556 1757.57 33.5731 1722.4 43.4006C1718.25 49.0485 1714.84 54.4141 1714.3 59.6102V59.6102ZM1612.06 67.6304C1623.82 66.7832 1635.53 65.7666 1647.1 64.6934C1660.74 63.5074 1674.78 62.2083 1688.49 61.3611C1696.58 60.8528 1704.74 60.5704 1712.83 60.4574C1712.88 60.1562 1712.9 59.8362 1712.9 59.4973C1713.44 54.4706 1716.44 49.3309 1720.32 44.0218C1719.83 44.1348 1719.34 44.2666 1718.85 44.4172C1707.95 48.0884 1696.45 49.2744 1684.75 50.2346C1674.18 51.1383 1663.21 51.816 1651.31 52.3808C1646.41 52.5691 1641.52 52.7386 1636.66 52.8892C1628.04 57.1252 1619.81 62.0389 1612.06 67.6304V67.6304ZM1440.39 29.45C1442.13 29.7136 1443.82 30.0901 1445.47 30.5796C1458.18 34.5897 1469.95 40.746 1481.38 46.7328C1499.04 55.9391 1517.3 65.4277 1538.76 67.0091C1550.26 68.4211 1560.63 69.1553 1569.59 69.2118C1582.83 69.2683 1596.27 68.7035 1609.58 67.7998C1617.2 62.2083 1625.23 57.2381 1633.66 53.0021C1617.07 53.3975 1600.55 53.454 1584.44 53.0021C1574.34 52.7762 1562.9 51.6466 1551.87 50.5735L1548.53 50.2346C1516.76 46.4505 1487.8 34.8156 1459.85 23.6326C1454.37 21.4299 1448.68 19.1707 1443.07 16.968C1442.13 21.091 1441.26 25.2705 1440.39 29.45V29.45ZM1316.87 75.8765C1334.4 70.3979 1350.45 61.9824 1366.16 53.7928C1379.54 46.7893 1393.31 39.5599 1407.76 34.2508C1418.52 29.6759 1429.42 27.9251 1438.99 29.2241C1439.86 24.9316 1440.79 20.6956 1441.73 16.4597C1424.94 10.0774 1407.15 9.90798 1394.11 15.9513C1388.41 18.5117 1382.66 20.8839 1376.86 23.0678C1357.8 40.4636 1337.74 58.2548 1316.87 75.8765V75.8765ZM1172.03 7.30992C1168.35 16.7985 1164.6 26.4001 1160.59 35.8887C1166.94 33.6295 1173.5 32.6694 1180.12 35.4369C1191.35 40.5765 1202.25 46.4504 1212.82 52.0984C1227.33 59.9491 1242.38 68.0258 1258.23 74.1256C1268.93 77.3449 1277.95 79.83 1287.25 81.7504C1296.55 81.0726 1305.31 79.3217 1313.73 76.8366C1334.53 59.3278 1354.52 41.5932 1373.58 24.3103C1352.25 32.0481 1330.72 37.0183 1310.39 38.8257C1279.43 41.5932 1251.14 37.3007 1226.26 26.1177C1222.65 24.461 1219.04 22.8042 1215.43 21.1475C1210.01 18.6624 1204.46 16.0643 1198.98 13.6357C1189.21 9.23024 1181.12 5.78497 1173.7 2.90449C1173.12 4.37297 1172.56 5.84144 1172.03 7.30992V7.30992ZM1016.88 85.6475L1012.27 88.0761H1012.53C1016.41 88.0761 1020.76 87.8502 1024.97 87.6243C1028.85 87.4548 1032.93 87.2289 1036.74 87.2289C1073.52 86.3817 1102.41 69.1553 1132.97 50.9688C1139.93 46.7893 1147.15 42.5534 1154.31 38.4868C1155.82 37.809 1157.31 37.1689 1158.79 36.5665C1163 26.739 1166.81 16.7985 1170.62 6.91455C1171.2 5.40842 1171.8 3.90229 1172.43 2.39616C1172.16 2.2832 1171.89 2.18907 1171.63 2.11376L1171.56 2.0573C1168.42 0.47586 1164.54 2.00082 1160.79 3.86466C1155.98 6.46273 1151.1 9.17376 1146.41 11.7718C1128.56 21.5429 1111.1 31.0879 1093.18 39.2775C1068.97 55.6567 1043.83 71.697 1016.88 85.6475ZM867.016 88.0761H1009.52L1016.08 84.6308C1040.75 71.8664 1063.96 57.2946 1086.36 42.3839C1063.22 52.3808 1039.22 59.8362 1012.53 62.3213H1012.47H1012.4C1004.64 61.7 995.414 61.9259 986.453 62.2083C981.972 62.3213 977.692 62.4342 973.747 62.4342H924.394L867.016 88.0761ZM806.897 114.904H958.098L1007.25 89.2622H864.341L806.897 114.904ZM746.778 141.788H906.605L955.758 116.147H804.155L746.778 141.788ZM686.658 168.616H855.18L904.332 142.974H744.103L686.658 168.616ZM626.539 195.501H803.687L852.839 169.802H683.916L626.539 195.501ZM566.419 222.385H752.261L801.413 196.743H623.864L566.419 222.385ZM506.3 249.213H700.768L749.921 223.571H563.678L506.3 249.213ZM446.181 276.098H649.343L698.495 250.456H503.625L446.181 276.098ZM386.061 302.925H597.85L647.002 277.284H443.439L386.061 302.925ZM325.942 329.81H546.424L595.576 304.112H383.386L325.942 329.81ZM265.823 356.694H494.932L544.084 331.052H323.2L265.823 356.694ZM205.703 383.522H443.506L492.658 357.88H263.148L205.703 383.522ZM145.584 410.407H392.013L441.165 384.765H203.028L145.584 410.407ZM389.672 411.593H142.842L85.4644 437.235H340.52L389.672 411.593ZM639.512 411.593H392.347L343.262 437.235H598.652L639.512 411.593ZM889.352 411.593H641.92L600.993 437.235H856.718L889.352 411.593ZM1139.19 411.593H891.425L858.858 437.291H1114.85L1139.19 411.593ZM1388.96 411.593H1141L1116.66 437.235H1372.92L1388.96 411.593ZM1638.74 411.593H1390.57L1374.45 437.235H1630.91L1638.74 411.593ZM1888.84 437.235L1888.44 411.593H1640.21L1632.38 437.235H1888.84ZM1888.84 356.638H2119.36L2110.66 330.996H1888.38L1888.84 356.638ZM1889.31 383.522H2128.52L2119.83 357.88H1888.91L1889.31 383.522ZM1889.78 410.35H2137.61L2128.92 384.708H1889.31L1889.78 410.35ZM2146.78 437.235L2138.02 411.536H1889.78L1890.25 437.235H2146.78ZM2404.64 437.235L2387.66 411.536H2139.55L2148.25 437.235H2404.64ZM2662.51 437.235L2637.29 411.536H2389.33L2406.31 437.235H2662.51ZM2920.3 437.235L2886.8 411.536H2639.1L2664.38 437.235H2920.3ZM3178.1 437.235L3136.31 411.536H2888.87L2922.44 437.235H3178.1ZM3435.9 437.235L3385.81 411.536H3138.71L3180.51 437.235H3435.9ZM3693.7 437.235L3635.38 411.536H3388.62L3438.64 437.235H3693.7Z" fill="#00FFFF"/>
</g>
<defs>
<linearGradient id="paint0_linear_188_2802" x1="-1.33755" y1="456.721" x2="-1.33755" y2="-11.743" gradientUnits="userSpaceOnUse">
<stop stop-color="#000025"/>
<stop offset="0.6" stop-color="#6300EA"/>
<stop offset="1" stop-color="#00FFFF"/>
</linearGradient>
</defs>
</svg>
