<svg width="68" height="67" viewBox="0 0 68 67" fill="none" xmlns="http://www.w3.org/2000/svg">
<g filter="url(#filter0_ddii_188_2073)">
<rect x="4.91901" y="4" width="49.3542" height="50.6177" rx="24.6771" fill="#F7F7F9"/>
</g>
<path d="M29.8928 23.2908C28.8203 23.2908 27.7719 23.6352 26.8801 24.2803C25.9883 24.9255 25.2932 25.8424 24.8828 26.9153C24.4724 27.9881 24.365 29.1686 24.5742 30.3075C24.7835 31.4465 25.2999 32.4926 26.0583 33.3137C26.8167 34.1348 27.783 34.694 28.8349 34.9206C29.8868 35.1471 30.9772 35.0308 31.9681 34.5865C32.9589 34.1421 33.8059 33.3895 34.4017 32.424C34.9976 31.4585 35.3156 30.3233 35.3156 29.1621C35.3169 28.3907 35.1775 27.6266 34.9054 26.9137C34.6333 26.2007 34.2339 25.5529 33.7301 25.0075C33.2263 24.462 32.628 24.0296 31.9695 23.735C31.311 23.4404 30.6053 23.2895 29.8928 23.2908ZM29.8928 32.9783C29.1957 32.9783 28.5142 32.7545 27.9346 32.3352C27.355 31.9158 26.9032 31.3198 26.6364 30.6225C26.3697 29.9252 26.2998 29.1579 26.4359 28.4176C26.5719 27.6773 26.9075 26.9974 27.4005 26.4637C27.8934 25.9299 28.5215 25.5665 29.2052 25.4192C29.8889 25.272 30.5976 25.3476 31.2417 25.6364C31.8857 25.9252 32.4362 26.4144 32.8235 27.0419C33.2108 27.6695 33.4175 28.4073 33.4175 29.1621C33.4157 30.1736 33.0437 31.1431 32.3831 31.8583C31.7225 32.5736 30.8271 32.9763 29.8928 32.9783ZM36.8012 23.0508C36.8012 23.3217 36.727 23.5865 36.588 23.8117C36.449 24.037 36.2514 24.2125 36.0203 24.3162C35.7891 24.4198 35.5348 24.447 35.2894 24.3941C35.044 24.3413 34.8186 24.2108 34.6417 24.0193C34.4648 23.8277 34.3443 23.5837 34.2955 23.318C34.2467 23.0523 34.2717 22.7769 34.3674 22.5267C34.4632 22.2764 34.6253 22.0625 34.8334 21.912C35.0414 21.7615 35.286 21.6812 35.5362 21.6812C35.7025 21.6805 35.8674 21.7154 36.0212 21.784C36.175 21.8526 36.3148 21.9534 36.4325 22.0807C36.5502 22.208 36.6434 22.3593 36.7069 22.5258C36.7704 22.6923 36.8028 22.8707 36.8024 23.0508H36.8012ZM40.3875 24.4397C40.4225 22.6594 39.8088 20.9357 38.6791 19.6415C37.4813 18.4226 35.891 17.7588 34.2474 17.7918C32.5011 17.684 27.268 17.684 25.5216 17.7918C23.8786 17.7563 22.2879 18.4184 21.09 19.6364C19.9652 20.9334 19.3545 22.6558 19.3887 24.4345C19.2891 26.3253 19.2891 31.9912 19.3887 33.882C19.3537 35.6623 19.9674 37.3859 21.0971 38.6802C22.2952 39.8975 23.8847 40.5606 25.5276 40.5286C27.2739 40.6364 32.507 40.6364 34.2534 40.5286C35.8977 40.5664 37.4897 39.9019 38.685 38.6789C39.8084 37.3813 40.4193 35.6601 40.3875 33.882C40.4919 31.9912 40.4919 26.3305 40.3875 24.4397ZM38.1349 35.9075C37.9555 36.4017 37.6839 36.8505 37.3372 37.2259C36.9904 37.6014 36.5759 37.8954 36.1195 38.0897C34.7276 38.6879 31.4234 38.5492 29.8857 38.5492C28.348 38.5492 25.0391 38.6776 23.652 38.0897C23.1956 37.8954 22.781 37.6014 22.4343 37.2259C22.0875 36.8505 21.8159 36.4017 21.6365 35.9075C21.084 34.4006 21.2121 30.8231 21.2121 29.1583C21.2121 27.4934 21.0935 23.9108 21.6365 22.409C21.8159 21.9148 22.0875 21.466 22.4343 21.0906C22.781 20.7151 23.1956 20.4211 23.652 20.2268C25.0438 19.6287 28.348 19.7673 29.8857 19.7673C31.4234 19.7673 34.7323 19.6389 36.1195 20.2268C36.5759 20.4211 36.9904 20.7151 37.3372 21.0906C37.6839 21.466 37.9555 21.9148 38.1349 22.409C38.6874 23.916 38.5594 27.4934 38.5594 29.1583C38.5594 30.8231 38.6898 34.4083 38.1349 35.9075Z" fill="url(#paint0_linear_188_2073)"/>
<defs>
<filter id="filter0_ddii_188_2073" x="-5.08099" y="-6" width="72.3542" height="72.6177" filterUnits="userSpaceOnUse" color-interpolation-filters="sRGB">
<feFlood flood-opacity="0" result="BackgroundImageFix"/>
<feColorMatrix in="SourceAlpha" type="matrix" values="0 0 0 0 0 0 0 0 0 0 0 0 0 0 0 0 0 0 127 0" result="hardAlpha"/>
<feOffset dx="5" dy="4"/>
<feGaussianBlur stdDeviation="4"/>
<feColorMatrix type="matrix" values="0 0 0 0 0 0 0 0 0 0 0 0 0 0 0 0 0 0 0.15 0"/>
<feBlend mode="normal" in2="BackgroundImageFix" result="effect1_dropShadow_188_2073"/>
<feColorMatrix in="SourceAlpha" type="matrix" values="0 0 0 0 0 0 0 0 0 0 0 0 0 0 0 0 0 0 127 0" result="hardAlpha"/>
<feOffset dx="4" dy="4"/>
<feGaussianBlur stdDeviation="4"/>
<feComposite in2="hardAlpha" operator="out"/>
<feColorMatrix type="matrix" values="0 0 0 0 0.6875 0 0 0 0 0.6875 0 0 0 0 0.6875 0 0 0 0.25 0"/>
<feBlend mode="normal" in2="effect1_dropShadow_188_2073" result="effect2_dropShadow_188_2073"/>
<feBlend mode="normal" in="SourceGraphic" in2="effect2_dropShadow_188_2073" result="shape"/>
<feColorMatrix in="SourceAlpha" type="matrix" values="0 0 0 0 0 0 0 0 0 0 0 0 0 0 0 0 0 0 127 0" result="hardAlpha"/>
<feOffset dx="-10" dy="-10"/>
<feGaussianBlur stdDeviation="5"/>
<feComposite in2="hardAlpha" operator="arithmetic" k2="-1" k3="1"/>
<feColorMatrix type="matrix" values="0 0 0 0 0.966667 0 0 0 0 0.966667 0 0 0 0 0.966667 0 0 0 0.13 0"/>
<feBlend mode="normal" in2="shape" result="effect3_innerShadow_188_2073"/>
<feColorMatrix in="SourceAlpha" type="matrix" values="0 0 0 0 0 0 0 0 0 0 0 0 0 0 0 0 0 0 127 0" result="hardAlpha"/>
<feOffset dx="2" dy="4"/>
<feGaussianBlur stdDeviation="3"/>
<feComposite in2="hardAlpha" operator="arithmetic" k2="-1" k3="1"/>
<feColorMatrix type="matrix" values="0 0 0 0 0.804167 0 0 0 0 0.804167 0 0 0 0 0.804167 0 0 0 0.25 0"/>
<feBlend mode="normal" in2="effect3_innerShadow_188_2073" result="effect4_innerShadow_188_2073"/>
</filter>
<linearGradient id="paint0_linear_188_2073" x1="18.0625" y1="15.8027" x2="47.4404" y2="23.5634" gradientUnits="userSpaceOnUse">
<stop stop-color="#39008C"/>
<stop offset="1" stop-color="#00FFFF"/>
</linearGradient>
</defs>
</svg>
